/* XPM */
static char * idle6_xpm[] = {
"64 37 7 1",
" 	c None",
".	c #4D2B32",
"+	c #AD7757",
"@	c #7A4841",
"#	c #341C27",
"$	c #241527",
"%	c #090A14",
"                                                                ",
"             ........                                           ",
"           .............                                        ",
"          ..............++++                                    ",
"        ......@@@........++++++++           ++++++++++          ",
"       ........@@@.......+.++@+++++++   + +++@@++@@@+++         ",
"      .....@@@@..@@@........@@+@@@+++++++++++++.#+@+@@+@+       ",
"     ........@@@@@@@@@......@@@@+++++++++++++++.#+@@@@@+++      ",
"     ........@@@@..@@@........@++@@@@+++++++++++.#@@@@@@@@++    ",
"    .....@....@@..@@@..........@@@@@++@@+++++@+++.@@$$$@@..##.  ",
"    ......@@@@@@@@@@@@@@@...@@.@@@@@+@@++@@+@++@@@@@@@@@...#%%% ",
"   ......@@@@@@@@@@@@@@@@....@@@@@@@@@@+++@@@++@@@@@@..@..###%# ",
"   .....@@@@...@@@..@@@......@@@@@@@@@@@+@@@@@++@@@@@@...####$# ",
"  ...........@@@@..@@@@.@...@@@@@@@@@@@@+@@@@@@@@@@@@@...####$# ",
"  ..........@@@@@@@@@@@@@..@@.@@@@@@@@@@@@@@@@@@@@@@.@@..####$# ",
" ...##.....@@@@@@@@@@@@@......@@@@@@@@@@@@@@@@@@@@@@....###$$$# ",
" #.##.....@@@.@@@@.@@@@@@@..@@@@@@@@@@@@@@@@@@@@..@...########  ",
" ###......@@.@@@@..@@@..@.....@@@@@@@@@@@@@@@.@@@..##########   ",
" ###.##......@@@..@@@@@......@@@@@@@@@@@@@@@@....####           ",
"  #####......@@@@@@@@@@@@....@@@@@@@@@@@@@@.@@..##              ",
"   ####.##..@@@@@@@@@@@@...@@@.@@@@@@@@@@.@@....                ",
"    ##.##..@@@.@..@..@@..#.@...@@@@@@@.@@..@...                 ",
"     ####.@@@....@@..@..##....@@@.@@@@..@@....                  ",
"     ####........@@.....##.#..@...@@@@@.@@..                    ",
"      ###........@..#..#####.....@@..@.....                     ",
"      ####..#..#...##########.#......@....                      ",
"       ###.##..########   ########.......                       ",
"       $$###..###               ###...$$                        ",
"        $###.###                 $##..$                         ",
"        $######                  $$##$$                         ",
"        $$##$$                   $$##$                          ",
"        $$$#$                     $$#$                          ",
"        $$$#$                     $$$$                          ",
"         $$$$                     $$$$                          ",
"         $$$$$                     $$$$                         ",
"          $$$$$                     $$$$                        ",
"           $$$$                      $$$                        "};
