/* XPM */
static char * idle3_xpm[] = {
"64 37 9 1",
" 	c #4D9262",
".	c #4D2B32",
"+	c #7AB055",
"@	c #AD7757",
"#	c #7A4841",
"$	c #341C27",
"%	c #241527",
"&	c #090A14",
"*	c #3E734E",
"                                                                ",
"             ........                                           ",
"+          .............        +                               ",
" +        ..............@@@@   + +                             +",
"+       ......###........@@@@@  +                               ",
"       ........###.......@.@@@@@            @@@@@@@@@@          ",
"      .....####..###.......@@#@@@@@@@   @@@@@##@@###@@@         ",
"     ........#########......##@@##@@@@@@@@@@@@@.$@#@##@#@       ",
"     ........####..###........##@@@@@@@@@@@@@@@.$@#####@@@      ",
"    .....#....##..###........##@@####@@@@@@@@@@@.$########@@    ",
"    ......###############......#####@@##@@@@@#@@@.##%%%##..$$.  ",
"   ......################...##.#####@##@@#@@#@@#########...$&&& ",
"   .....####...###..###......##########@@@###@@######..#..$$$&$ ",
"  ...........####..####.#....###########@#####@@######...$$$$%$ ",
"  ..........#############...############@#############...$$$$%$ ",
" ...$$.....#############...##.######################.##..$$$$%$ ",
" $.$$.....###.####.#######....######################....$$$%%%$ ",
" $$$......##.####..###..#...####################..#...$$$$$$$$  ",
" $$$.$$......###..#####.......###################..$$$$$$$$$$   ",
"  $$$$$......############....################.#..$$$$           ",
"   $$$$.$$..############.....##############.##..$$    *         ",
"    $$.$$..###.#..#..##....###.##########.##....$    * *        ",
"     $$$$.###....##..#..$..#...#######.##..#...       *         ",
"     $$$$........##.....$$....###.####..##....                  ",
"      $$$........#..$..$$$$$..#...#####.##..                    ",
"      $$$$..$..$...$$$$$$$$$.....##..#.....      +              ",
"       $$$.$$..$$$$$$$$  $$$$.$......#....       ++             ",
"      +%%$$$..$$$++  +      $$$$$$.......        ++  +          ",
"      + %$$$.$$$  +*++          $$$...%%          +*++          ",
"      + %$$$$$$   *++*          %%$$..% +         *++*          ",
"      + %%$$%%     **           %%%$$%+ +          **           ",
"        %%%$%                    %%%$%  +                       ",
"        %%%$%                    %%%%%                          ",
"         %%%%                     %%%%                          ",
"+        %%%%%                  +  %%%%                         ",
" +        %%%%%                + +  %%%%                       +",
"+          %%%%                 +    %%%                        "};
