/* XPM */
static char * crystal_xpm[] = {
"64 64 12 1",
" 	c #4D9262",
".	c #3E734E",
"+	c #7AB055",
"@	c #174159",
"#	c #D5EBF4",
"$	c #ADD6EC",
"%	c #FFFFFF",
"&	c #5AAED8",
"*	c #27739B",
"=	c #5D5D5D",
"-	c #DEDEDE",
";	c #AAAAAA",
"                                                                ",
"                      .                               .         ",
"                     . .                             . .        ",
"                      .                               .         ",
"                                                                ",
"                                                                ",
"                 +                               +              ",
"                 ++                              ++             ",
"      +          ++  +                +          ++  +          ",
"      +           +.++                +           +.++          ",
"      + +         .++.                + +         .++.          ",
"      + +          ..                 + +          ..           ",
"        +                               +                       ",
"                                                                ",
"                                                                ",
"+                               +                               ",
" +                             + +                             +",
"+                               +                               ",
"                                                                ",
"                                                                ",
"                                                                ",
"          .                     @         .                     ",
"         . .                   @#@       . .                    ",
"          .                   @$%@        .                     ",
"                         +   @##%$@                      +      ",
"                       + +  @###%$@                    + +      ",
"                       + + @%###%$$@                   + +      ",
"                       +   @%####%$@                   +        ",
"                           @&%###%$$@                           ",
"             +             @&%$#$%$&@        +                  ",
"            + +         @  @&&%$$#&&&@      + +                 ",
"             +         @%@ @&&#&#*#&#@       +                  ",
"                      @#%$@@$&&#&**#*@                          ",
"                     @##%$$@$$&#&&*#*@                .         ",
"                    @###%$$$*$&#&&*#*@               . .        ",
"                    @##$%$$$&*$#&&&#*@ @@@@           .         ",
"                    @##$%$$$&$*#&&&#@@@#$%@                     ",
"                    @#$%*%&&&$*#$$&*%###$%@                     ",
"                 +   @%***#&$*@%$$#*%###$%*@     +              ",
"                 ++  @&&&**##*@%$$#*%##$$%&@     ++             ",
"      +          ++  @$&&&*$**@$%$#*&%#$%*&@     ++  +          ",
"      +           +.+@$&&&*$**@&%$*&&%$$%&&$@     +.++          ",
"      + +         .++.@&&&&$*@&&$&*$&%$$%&*$@     .++.          ",
"      + +          .. @$&&&$*@&===*$&%##$*$*@      ..           ",
"        +             @$&&&#*@=---*$#***$*$@                    ",
"                      @$$&&#*@--;*$&#***$$@                     ",
"                     ==@$&&#&@;;-@&#****$@=                     ",
"+                   =--@$$&#&@;;-@&#&**&@;-=                    ",
" +                  =-;@$$&#&@;--@#&&&&@;-;=                   +",
"+                  =;;;;@@$%@;;;;-@&&&@;;;;;=                   ",
"                   =======@@=======@@@=======                   ",
"                                                                ",
"                                                                ",
"          .                               .                     ",
"         . .                             . .                    ",
"          .                               .                     ",
"                         +                               +      ",
"                       + +                             + +      ",
"                       + +                             + +      ",
"                       +                               +        ",
"                                                                ",
"             +                               +                  ",
"            + +                             + +                 ",
"             +                               +                  "};
