/* XPM */
static char * dead_xpm[] = {
"48 48 6 1",
" 	c #4D9262",
".	c #7AB055",
"+	c #3E734E",
"@	c #FFE4C4",
"#	c #C10F23",
"$	c #E14A3E",
"                       . .                      ",
"                        .                       ",
"                                                ",
"                                                ",
"                                                ",
"  +                               +             ",
" + +                             + +            ",
"  +                               +             ",
"                 .                              ",
"               . .                             .",
"               . .                             .",
"               .                               .",
"                         @@@@@                  ",
"     .      @@@@@@      @@@@@@@      .          ",
"    . .     @@@@@@      @@@@@@@     . .         ",
"     .    @@@@@@@@@   @@@###@@@@@    .          ",
"          @@@#####@@@ @@#$$###@@@@@@            ",
"          @@@#####@@@ @@#$$###@@@@@@          + ",
"         @@@###$$$#@@@@@#$$$##@@@@@@         + +",
"         @@@###$$$$##@@@#$$$##@$$#@@          + ",
"         @@@###$$$$##@@@#$$$##@$$#@@            ",
"         @@@#$$$$$$$$###$$$$$$$$$#@@@@@         ",
"         .@@#$$$$$$$$$$$$$$$$$$$$#@@@@@  .      ",
"         .@@#$$$$$$$$$$$$$$$$$$$$#@@@@@  ..     ",
"         .@@@$$$$$$$$$$$$$$$$$$###$$@@@  ..  .  ",
"          .+@@@$$$$$$$$$$$$$$$$$$$$$@@@   .+..  ",
".         +.@@@$$$$$$$$$$$$$$$$$$$$$@@@   +..+  ",
".          ++@@@$$$$$$$$$$$$$$$$$$$$@@@    ++   ",
".            @@@@@$$$$$$$$$$$$$$$$$$@@@         ",
"             @@@@@$$$$$$$$$$$$$$$$$$@@@         ",
"             @@@##$$$$$$$$$$$$$$$$$$@@@         ",
"            @@@####$$$$$$$$$$$$$$$$$@@@         ",
"            @@@####$$$$$$$$$$$$$$$$$@@@         ",
"            @@@######$$$$$$$$$$$$$@@@@@         ",
"            @@@######$$$$$$$$$$$$$@@@           ",
"            @@@######$$$$$$$$$$$$$@@@           ",
"            @@@#########@@@$$$$$$$@@@           ",
"  +         @@@@###@@@@@@@@@$$$$$$@@            ",
" + +        @@@@###@@@@@@@@@$$$$$$@@            ",
"  +          @@@@@@@@@   @@@@@@$$@@@            ",
"               @@@          @@@@@@              ",
"               @@@          @@@@@@             .",
"               . .                             .",
"               .                               .",
"                                                ",
"     .                               .          ",
"    . .                             . .         ",
"     .                               .          "};
