/* XPM */
static char * portal_closed_xpm[] = {
"64 64 185 2",
"  	c #4D9262",
". 	c #4F865F",
"+ 	c #546959",
"@ 	c #555555",
"# 	c #535353",
"$ 	c #525252",
"% 	c #565656",
"& 	c #4E8F62",
"* 	c #518A61",
"= 	c #518761",
"- 	c #508660",
"; 	c #507C5C",
"> 	c #526356",
", 	c #545454",
"' 	c #3E734E",
") 	c #587960",
"! 	c #596D5E",
"~ 	c #556A5B",
"{ 	c #4F5550",
"] 	c #4E4E4E",
"^ 	c #515151",
"/ 	c #557E60",
"( 	c #5A6A5E",
"_ 	c #5B5B5B",
": 	c #575757",
"< 	c #545658",
"[ 	c #54555A",
"} 	c #545559",
"| 	c #53555A",
"1 	c #545659",
"2 	c #545557",
"3 	c #555557",
"4 	c #545657",
"5 	c #41724F",
"6 	c #595F5B",
"7 	c #595959",
"8 	c #5A5A5A",
"9 	c #556765",
"0 	c #4E8D64",
"a 	c #4D8D65",
"b 	c #4D8A67",
"c 	c #4E8866",
"d 	c #4E8666",
"e 	c #4E8767",
"f 	c #566160",
"g 	c #505255",
"h 	c #555659",
"i 	c #55565A",
"j 	c #56565A",
"k 	c #565759",
"l 	c #565659",
"m 	c #508265",
"n 	c #517761",
"o 	c #56575D",
"p 	c #56585D",
"q 	c #55565B",
"r 	c #545558",
"s 	c #515255",
"t 	c #57625C",
"u 	c #4D8F62",
"v 	c #4D9061",
"w 	c #4E8C60",
"x 	c #4E8A60",
"y 	c #4E8960",
"z 	c #4F8561",
"A 	c #4D8D63",
"B 	c #4D8F64",
"C 	c #4D8D64",
"D 	c #4D8D68",
"E 	c #4E8668",
"F 	c #4D886A",
"G 	c #545B60",
"H 	c #53565B",
"I 	c #535459",
"J 	c #54565B",
"K 	c #6F9B5F",
"L 	c #7AB055",
"M 	c #517360",
"N 	c #54575E",
"O 	c #54565C",
"P 	c #545458",
"Q 	c #6C8A5B",
"R 	c #54565D",
"S 	c #526066",
"T 	c #50706A",
"U 	c #4D8869",
"V 	c #50835E",
"W 	c #507D60",
"X 	c #5E7869",
"Y 	c #528761",
"Z 	c #677A5D",
"` 	c #5D5D5D",
" .	c #585858",
"..	c #507369",
"+.	c #5D7263",
"@.	c #535458",
"#.	c #5B6F60",
"$.	c #5C5C5C",
"%.	c #54565A",
"&.	c #4F8364",
"*.	c #3E734F",
"=.	c #5E776A",
"-.	c #54555B",
";.	c #63735C",
">.	c #476A53",
",.	c #54565E",
"'.	c #4F4F4F",
").	c #54585B",
"!.	c #4F8761",
"~.	c #525355",
"{.	c #52565C",
"].	c #4E7D6C",
"^.	c #507862",
"/.	c #53585A",
"(.	c #4F5155",
"_.	c #505050",
":.	c #4F7569",
"<.	c #51775E",
"[.	c #4C4C4C",
"}.	c #4E8D61",
"|.	c #54575A",
"1.	c #74A058",
"2.	c #545A5A",
"3.	c #53575D",
"4.	c #4F7B69",
"5.	c #507864",
"6.	c #53575E",
"7.	c #505155",
"8.	c #517363",
"9.	c #4F7469",
"0.	c #4E8B60",
"a.	c #53585D",
"b.	c #54575F",
"c.	c #53575A",
"d.	c #545760",
"e.	c #4F875F",
"f.	c #4F885F",
"g.	c #50805E",
"h.	c #4F845E",
"i.	c #52555C",
"j.	c #719D55",
"k.	c #78AB55",
"l.	c #53555C",
"m.	c #54555D",
"n.	c #76A855",
"o.	c #53555B",
"p.	c #54555C",
"q.	c #4D9162",
"r.	c #426F4F",
"s.	c #4E8C61",
"t.	c #50815E",
"u.	c #4F845F",
"v.	c #507F5E",
"w.	c #54575D",
"x.	c #73A156",
"y.	c #74A456",
"z.	c #4E8B61",
"A.	c #4E8D62",
"B.	c #4F8960",
"C.	c #4F8860",
"D.	c #4E8C62",
"E.	c #4E8A61",
"F.	c #53545C",
"G.	c #50825F",
"H.	c #4D8E62",
"I.	c #4F8560",
"J.	c #53555D",
"K.	c #4F8460",
"L.	c #4D9163",
"M.	c #517C5E",
"N.	c #4D8F63",
"O.	c #517A5D",
"P.	c #79AE57",
"Q.	c #555658",
"R.	c #51795D",
"S.	c #77AB57",
"T.	c #517B5E",
"U.	c #4D8E63",
"V.	c #555558",
"W.	c #555556",
"X.	c #507F5F",
"Y.	c #4E8962",
"Z.	c #4D9164",
"`.	c #4D8F66",
" +	c #4D8B66",
"                                  . + @ # $ $ $ $ $ $ # @ % % % % % % @ # $ $ $ $ $ $ # @ + .                                   ",
"                      & * = - . . ; > # $ $ $ $ $ $ $ # , @ % % % % @ , # $ $ $ $ $ $ $ # > ; . . - = * &   '                   ",
"                      * ) ! ~ + + > { ] ^ $ $ $ $ $ $ $ # , @ % % @ , # $ $ $ $ $ $ $ ^ ] { > + + ~ ! ) * '   '                 ",
"                  & * / ( _ : @ # ^ ] ] ^ , @ @ @ < [ [ } | < 1 1 1 2 3 3 2 4 @ @ @ , ^ ] ] ^ # @ : _ ( / * 5                   ",
"                  * ) ( 6 : , ^ ] ] $ # @ : 7 _ 8 9 0 a b b b b c c c c d e f _ _ 7 : @ # ^ ] ] ^ , : 6 ( ) *                   ",
"              & * / ( _ : @ , ^ ] g } h i i j k l m                         n o p p q i 3 r s ] ^ , @ : _ ( / * &               ",
"              * ) ( 6 : , , @ @ , t u v w x y z A w                           B C D c E F G H # @ @ , , : 6 ( ) *               ",
"          & * / ( _ : @ , I J h J K L                                                     M N O J O P , @ : _ ( / * &           ",
"          * Q ( 6 : , , @ R S T U L L     L                                 L             w V u W X O @ , , : 6 ( ) *           ",
"          Y Z `  .@ , I J ..        L ' L L                                 L                     u +.O @., @  .` #.Y           ",
"          Y Z $.% , @ %.&.          ' L L '                                 L   L                   *.=.-.@ , % $.#.Y           ",
"      & * / ;.8 # ^ @ i w             ' '                                   L   L                     >.,.@ ^ # 8 ( / * &       ",
"      * ) ( 6 @ '.] # ).v                                                       L                     !.O # ] '.@ 6 ( ) *       ",
"  & * / ( _ % ^ ] ~.{.].                                                                                ^./.(.] ^ % _ ( / * &   ",
"  * ) ( 6 % _.] $ r :.                                                                                    <.H $ ] _.% 6 ( ) *   ",
"L Y #.`  .# [.[.# i C                                           L                                         }.|.# [.[.#  .` #.Y   ",
"  1.#.`  .# [.[.# %.                                          L   L                                       }.2.# [.[.#  .` #.Y L ",
"L Y #.$.% ^ ] g 3.4.                                            L                                         v 5.6.7.] ^ % $.#.Y   ",
"  Y #._ $ ] ^ 1 8.                                                                                            9.H ^ ] $ _ #.Y   ",
"  Y #.8 '.[.# O v                                                                                             }.N # [.'.8 #.Y   ",
"  Y #.8 '.[.# N x                                                                                             0.a.# [.'.8 #.Y   ",
"  Y #.8 '.[.# b.x   '                                                               '                         . c.# [.'.8 #.Y   ",
"  Y #.8 '.[.# d.e.'   '                                                           '   '                       f.| # [.'.8 #.Y   ",
"  Y #.8 '.[.# R }.  '                                                               '                         g.| # [.'.8 #.Y   ",
"  Y #.8 '.[.# -.u                                 L                                                           h.i.# [.'.8 #.Y   ",
"  Y #._ ^ ] # -.                              L   L                                                           j.i.# ] ^ _ #.Y   ",
"  Y #._ , ^ @ -.}.                            L   L                                                           k.l.@ ^ , _ #.Y   ",
"  Y #.$.@ # @ m.x                             L                                                               n.o.@ # @ $.#.Y   ",
"  Y #.$.@ # @ m.}.                                                                                            0.o.@ # @ $.#.Y   ",
"  Y #.$.@ # @ m.}.        L                                                               L                   }.H @ # @ $.#.Y   ",
"  Y #.$.@ # @ -.u       L   L                                                           L   L                 }.-.@ # @ $.#.Y   ",
"  Y #.$.@ # @ } }.        L                                                               L                   v %.@ # @ $.#.Y   ",
"  Y #.$.@ # @ } u                                                                                             0.%.@ # @ $.#.Y   ",
"  Y #.$.@ # @ p.q.                          '                                                               ' 0.%.@ # @ $.#.Y   ",
"  Y #.$.@ # @ -.}.                        '   '                                                           '   r.O @ # @ $.#.Y   ",
"  Y #.$.@ # @ [ s.                          '                                                               ' 0.N @ # @ $.#.Y   ",
"  Y #.$.@ # @ [ }.                                                                                            0.N @ # @ $.#.Y   ",
"  Y #.$.@ # @ [ t.                                                                                            0.N @ # @ $.#.Y   ",
"  Y #.$.@ # @ -..                 L                                                               L           0.N @ # @ $.#.Y   ",
"  Y #.$.@ # @ -.u.                L L                                                             L L         0.N @ # @ $.#.Y   ",
"  Y #.$.@ # @ J v.                L L     L                                 L                     L L     L   0.N @ # @ $.#.Y   ",
"  Y #.$.@ # @ w.u.                  L ' L L                                 L                       L ' L L   0.N @ # @ $.#.Y   ",
"  Y #.$.@ # @ R x.                  ' L L '                                 L   L                   ' L L '   0.N @ # @ $.#.Y   ",
"  Y #.$.@ # @ R y.                    ' '                                   L   L                     ' '     0.J @ # @ $.#.Y   ",
"  Y #.$.@ # @ O y.                                                              L                             z.J @ # @ $.#.Y   ",
"  Y #.$.@ # @ J A.                                                                                            B.%.@ # @ $.#.Y   ",
"  Y #.$.@ # @ J A.                                                                                            C.1 @ # @ $.#.Y   ",
"L Y #.$.@ # @ J A.                                              L                                             s.1 @ # @ $.#.Y   ",
"  1.#.$.@ # @ %.D.                                            L   L                                           u -.@ # @ $.#.Y L ",
"L Y #.$.@ # @ J E.                                              L                                             u F.@ # @ $.#.Y   ",
"  Y #.$.@ # @ J G.                                                                                            H.F.@ # @ $.#.Y   ",
"  = ! 8 # ^ @ %.I.                                                                                            s.J.@ ^ # 8 ! =   ",
"  - ~ @ '.] # i K.                                                                                            u o.# ] '.@ ~ -   ",
"  . + # [.[.# %.v.  '                                                               '                         u [ # [.[.# + .   ",
"  . + # [.[.# %.v.'   '                                                           '   '                       u J # [.[.# + .   ",
"  . + # [.[.# %.v.  '                                                               '                         L.q # [.[.# + .   ",
"  . + # [.[.# J M.                                L                                                           N.O # [.[.# + .   ",
"  . + # [.[.# J O.                            L   L                                                           P.J # [.[.# + .   ",
"  . + # [.[.# %.O.                            L   L                                                           P.%.# [.[.# + .   ",
"  . + # [.[.# Q.R.                            L                                                               S.%.# [.[.# + .   ",
"  . + # [.[.# Q.T.                                                                                            U.J # [.[.# + .   ",
"  . + # [.[., V.R.        L                                                               L                   U.%.# [.[.# + .   ",
"  . + # [.[., W.X.      L   L                                                           L   L                 U.%.# [.[.# + .   ",
"  . + # [.[., h Y.        L                                                               L         Z.`.`.`.`. +i # [.[.# + .   "};
