/* XPM */
static char * portal_xpm[] = {
"64 64 144 2",
"  	c #4D9262",
". 	c #4F865F",
"+ 	c #546959",
"@ 	c #555555",
"# 	c #535353",
"$ 	c #525252",
"% 	c #565656",
"& 	c #4E8F62",
"* 	c #518A61",
"= 	c #518761",
"- 	c #508660",
"; 	c #507C5C",
"> 	c #526356",
", 	c #545454",
"' 	c #3E734E",
") 	c #587960",
"! 	c #596D5E",
"~ 	c #556A5B",
"{ 	c #4F5550",
"] 	c #4E4E4E",
"^ 	c #515151",
"/ 	c #557E60",
"( 	c #5A6A5E",
"_ 	c #5B5B5B",
": 	c #575757",
"< 	c #54565A",
"[ 	c #515663",
"} 	c #505667",
"| 	c #505668",
"1 	c #525869",
"2 	c #53596A",
"3 	c #41724F",
"4 	c #595F5B",
"5 	c #5A5A5A",
"6 	c #5C5C5C",
"7 	c #585C69",
"8 	c #4F5D7D",
"9 	c #4B5D86",
"0 	c #4B5D87",
"a 	c #4C5D87",
"b 	c #4C5E87",
"c 	c #4E5055",
"d 	c #54596A",
"e 	c #575B6A",
"f 	c #595C6A",
"g 	c #555C75",
"h 	c #4C5C88",
"i 	c #475C90",
"j 	c #475D91",
"k 	c #485F92",
"l 	c #486093",
"m 	c #595C6C",
"n 	c #5A5E6E",
"o 	c #585E6E",
"p 	c #555A6B",
"q 	c #4E5B7C",
"r 	c #4B5B85",
"s 	c #4B5780",
"t 	c #4B547E",
"u 	c #495481",
"v 	c #455487",
"w 	c #445489",
"x 	c #45578C",
"y 	c #4C5780",
"z 	c #4E5D86",
"A 	c #4E5F88",
"B 	c #535459",
"C 	c #535764",
"D 	c #505A75",
"E 	c #4A5B88",
"F 	c #45598D",
"G 	c #435389",
"H 	c #425086",
"I 	c #4B5E8A",
"J 	c #505B76",
"K 	c #6C8A5B",
"L 	c #4E5C7D",
"M 	c #465789",
"N 	c #425187",
"O 	c #495F90",
"P 	c #528761",
"Q 	c #677A5D",
"R 	c #5D5D5D",
"S 	c #585858",
"T 	c #414F85",
"U 	c #404E84",
"V 	c #3F4D83",
"W 	c #5B6F60",
"X 	c #3C4A7F",
"Y 	c #3A487C",
"Z 	c #63735C",
"` 	c #39477C",
" .	c #3D4B81",
"..	c #374579",
"+.	c #4F4F4F",
"@.	c #38467A",
"#.	c #374578",
"$.	c #364476",
"%.	c #354475",
"&.	c #505050",
"*.	c #334370",
"=.	c #31426D",
"-.	c #7AB055",
";.	c #4C4C4C",
">.	c #344372",
",.	c #31426B",
"'.	c #2F4168",
").	c #74A058",
"!.	c #304169",
"~.	c #2F4067",
"{.	c #2E3F66",
"].	c #2C3A61",
"^.	c #2E3E65",
"/.	c #2C3C63",
"(.	c #2A375E",
"_.	c #2B385E",
":.	c #29355C",
"<.	c #29345B",
"[.	c #4B5B84",
"}.	c #525868",
"|.	c #49557F",
"1.	c #525666",
"2.	c #29345A",
"3.	c #283359",
"4.	c #48527C",
"5.	c #525565",
"6.	c #263054",
"7.	c #283258",
"8.	c #252E51",
"9.	c #242E51",
"0.	c #263156",
"a.	c #232D4F",
"b.	c #232B4D",
"c.	c #222A4B",
"d.	c #22294A",
"e.	c #202645",
"f.	c #1F2342",
"g.	c #212747",
"h.	c #1E2341",
"i.	c #1D203D",
"j.	c #1D213E",
"k.	c #232C4E",
"l.	c #263055",
"m.	c #202646",
"                                  . + @ # $ $ $ $ $ $ # @ % % % % % % @ # $ $ $ $ $ $ # @ + .                                   ",
"                      & * = - . . ; > # $ $ $ $ $ $ $ # , @ % % % % @ , # $ $ $ $ $ $ $ # > ; . . - = * &   '                   ",
"                      * ) ! ~ + + > { ] ^ $ $ $ $ $ $ $ # , @ % % @ , # $ $ $ $ $ $ $ ^ ] { > + + ~ ! ) * '   '                 ",
"                  & * / ( _ : @ # ^ ] ] ^ , @ @ @ < [ } } | 1 2 2 1 | } } [ < @ @ @ , ^ ] ] ^ # @ : _ ( / * 3                   ",
"                  * ) ( 4 : , ^ ] ] ^ # @ : 5 6 6 7 8 9 9 0 a b b a 0 9 9 8 7 6 6 5 : @ # ^ ] ] ^ , : 4 ( ) *                   ",
"              & * / ( _ : @ , ^ ] c [ 2 2 d e f f g h i i j k l l l l k j h g m n o p 2 2 [ c ] ^ , @ : _ ( / * &               ",
"              * ) ( 4 : , , @ @ # [ q b b r s t t u v w w x j l l l l j x v u y z A b b b q [ # @ @ , , : 4 ( ) *               ",
"          & * / ( _ : @ , B C 2 2 D E i i F G H H H H H H G F i i i i F G H H G F i i j k I J 2 2 C B , @ : _ ( / * &           ",
"          * K ( 4 : , , @ C L b b E M w w G N H H H H H H N G w w w w G N H H N G w w x j O I b b L C @ , , : 4 ( ) *           ",
"          P Q R S @ , B C J I k j F G T U U T T U V V V V U T H H H H H H T U U T H H G F i i j k I J C B , @ S R W P           ",
"          P Q 6 % , @ C L I O j x G N U X X U U X Y Y Y Y X U H H H H H H U X X U H H N G w w x j O I L C @ , % 6 W P           ",
"      & * / Z 5 # ^ @ 2 b k j F G H H V Y `  . .` ........`  .V V U T T U  .` `  .U T H H H H G F j k b 2 @ ^ # 5 ( / * &       ",
"      * ) ( 4 @ +.] # 2 b j x G N H H V Y @.` ` @.........@.` Y Y X U U X ` @.@.` X U H H H H N G x j b 2 # ] +.@ 4 ( ) *       ",
"  & * / ( _ % ^ ] c [ J I i w H H T U  .` ....#.$.%.%.%.%.$.#.....`  . .` ........`  .U T H H H H w i I J [ c ] ^ % _ ( / * &   ",
"  * ) ( 4 % &.] ^ [ q I O i w H H U X ` @.....$.*.=.=.=.=.*.$.....@.` ` @.........@.` X U H H H H w i O I q [ ^ ] &.% 4 ( ) *   ",
"-.P W R S # ;.;.# 2 b k j F G H H V Y ....#.$.>.,.'.'.'.'.,.>.%.%.$.#.#.$.%.%.$.#.....Y V H H H H G F j k b 2 # ;.;.# S R W P   ",
"  ).W R S # ;.;.# 2 b j x G N H H V Y ....$.*.,.!.'.'.'.'.!.,.=.=.*.$.$.*.=.=.*.$.....Y V H H H H N G x j b 2 # ;.;.# S R W P -.",
"-.P W 6 % ^ ] c [ J I i w H H H H V Y #.$.>.,.'.'.'.'.'.'.~.{.{.~.,.>.>.,.'.'.,.>.$.#.`  .U T H H H H G F E D [ c ] ^ % 6 W P   ",
"  P W _ $ ] ^ [ q I O i w H H H H V Y $.*.,.!.'.'.'.'.'.'.{.].].{.!.,.,.!.'.'.!.,.*.$.@.` X U H H H H N G M E q [ ^ ] $ _ W P   ",
"  P W 5 +.;.# 2 b k j F G H H T U  .` %.=.'.'.'.'.~.{.^.^./.(.(./.^.^.{.~.'.'.'.'.=.%.....Y V H H H H H H w i b 2 # ;.+.5 W P   ",
"  P W 5 +.;.# 2 b j x G N H H U X ` @.%.=.'.'.'.'.{.]._._.(.:.:.(._._.].{.'.'.'.'.=.%.....Y V H H H H H H w i b 2 # ;.+.5 W P   ",
"  P W 5 +.;.# 2 b i w H H T U  .` #.$.>.,.'.'.'.'.^._.<.<.<.<.<.<.<.<.(./.{.~.'.'.,.>.$.#.`  .U T H H H H G F [.}.# ;.+.5 W P   ",
"  P W 5 +.;.# 2 b i w H H U X ` @.$.*.,.!.'.'.'.'.^._.<.<.<.<.<.<.<.<.:.(.].{.'.'.!.,.*.$.@.` X U H H H H N G |.1.# ;.+.5 W P   ",
"  P W 5 +.;.# }.[.F G H H V Y ....%.=.'.'.'.'.~.{./.(.2.3.3.2.2.3.3.2.<.<._.^.'.'.'.'.=.%.....`  .U T H H H H 4.5.# ;.+.5 W P   ",
"  P W 5 +.;.# 1.|.G N H H V Y ....%.=.'.'.'.'.{.].(.:.3.6.6.3.3.6.6.3.<.<._.^.'.'.'.'.=.%.....@.` X U H H H H 4.5.# ;.+.5 W P   ",
"  P W _ ^ ] # 5.4.H H T U  .` ....%.=.'.'.~.{./.(.<.<.7.8.9.0.0.9.9.0.3.2._.^.'.'.'.'.=.%.........Y V H H H H 4.5.# ] ^ _ W P   ",
"  P W _ , ^ @ 5.4.H H U X ` @.....%.=.'.'.{.].(.:.<.<.7.8.a.9.9.a.a.9.6.3._.^.'.'.'.'.=.%.........Y V H H H H 4.5.@ ^ , _ W P   ",
"  P W 6 @ # @ 5.4.H H V Y ........%.=.'.'.^._.<.<.2.3.0.9.b.c.d.d.c.b.8.7.(./.{.~.'.'.,.>.$.#.....Y V H H H H 4.5.@ # @ 6 W P   ",
"  P W 6 @ # @ 5.4.H H V Y ........%.=.'.'.^._.<.<.3.6.9.a.c.e.f.f.e.c.8.7.:.(.].{.'.'.!.,.*.$.....Y V H H H H 4.5.@ # @ 6 W P   ",
"  P W 6 @ # @ 5.4.H H V Y ........$.*.,.!.{.].(.:.7.8.b.c.g.h.i.i.f.d.8.7.<.<._.^.'.'.'.'.=.%.....Y V H H N G |.1.@ # @ 6 W P   ",
"  P W 6 @ # @ 5.4.H H V Y ........#.$.>.,.~.{./.(.7.8.c.e.h.j.i.i.f.d.8.7.<.<._.^.'.'.'.'.=.%.....Y V H H G F [.}.@ # @ 6 W P   ",
"  P W 6 @ # @ 5.4.H H V Y ........#.$.>.,.'.'.^._.7.8.d.f.i.i.i.i.h.g.k.l.3.2.(./.{.~.'.'.=.%.@.` X U H H w i b 2 @ # @ 6 W P   ",
"  P W 6 @ # @ 5.4.H H V Y ........$.*.,.!.'.'.^._.7.8.d.f.i.i.i.i.j.h.m.k.6.3.:.(.].{.'.'.=.%.`  .U T H H w i b 2 @ # @ 6 W P   ",
"  P W 6 @ # @ 5.4.H H V Y ........%.=.'.'.~.{./.(.7.8.c.e.h.j.i.i.i.i.f.d.8.7.<.<._.^.'.'.=.%.Y V H H N G x j b 2 @ # @ 6 W P   ",
"  P W 6 @ # @ 5.4.H H V Y ........%.=.'.'.{.].(.:.7.8.b.c.g.h.i.i.i.i.f.d.8.7.<.<._.^.'.'.=.%.Y V H H G F j k b 2 @ # @ 6 W P   ",
"  P W 6 @ # @ 5.4.H H V Y ....#.$.>.,.'.'.^._.<.<.7.8.b.c.g.h.i.i.i.i.f.d.8.7.<.<._.^.'.'.=.%.Y V H H w i l l b 2 @ # @ 6 W P   ",
"  P W 6 @ # @ 5.4.H H V Y ....$.*.,.!.'.'.^._.<.<.7.8.c.e.h.j.i.i.i.i.f.d.8.7.<.<._.^.'.'.=.%.Y V H H w i l l b 2 @ # @ 6 W P   ",
"  P W 6 @ # @ 5.4.H H V Y ....%.=.'.'.'.'.^._.<.<.7.8.d.f.i.i.i.i.j.h.e.c.8.7.<.<._.^.'.'.=.%.`  .U T w i l l b 2 @ # @ 6 W P   ",
"  P W 6 @ # @ 5.4.H H V Y ....%.=.'.'.'.'.^._.<.<.7.8.d.f.i.i.i.i.h.g.c.b.8.7.<.<._.^.'.'.=.%.@.` X U w i l l b 2 @ # @ 6 W P   ",
"  P W 6 @ # @ 1.|.G N U X ` @.%.=.'.'.'.'.^._.<.<.3.6.k.m.h.j.i.i.f.d.k.k.8.7.:.(.].{.'.'.=.%.....Y V w i l l b 2 @ # @ 6 W P   ",
"  P W 6 @ # @ }.[.F G T U  .` %.=.'.'.'.'.^._.<.<.2.3.l.k.g.h.i.i.f.d.k.k.8.7.(./.{.~.'.'.=.%.....Y V w i l l b 2 @ # @ 6 W P   ",
"  P W 6 @ # @ 2 b i w H H V Y $.*.,.!.'.'.{.].(.:.2.3.0.9.c.e.f.f.e.c.a.9.6.3._.^.'.'.'.'.=.%.....Y V G F j k b 2 @ # @ 6 W P   ",
"  P W 6 @ # @ 2 b i w H H V Y #.$.>.,.'.'.~.{./.(.3.6.9.a.b.c.d.d.c.b.9.0.3.2._.^.'.'.'.'.=.%.....Y V N G x j b 2 @ # @ 6 W P   ",
"  P W 6 @ # @ 2 b i w H H V Y ....%.=.'.'.'.'.^._.3.6.9.a.k.k.k.k.a.9.6.3.<.<._.^.'.'.!.,.*.$.....Y V H H w i b 2 @ # @ 6 W P   ",
"  P W 6 @ # @ 2 b i w H H V Y ....%.=.'.'.'.'.^._.2.3.0.9.k.k.k.k.9.0.3.2.<.<._.^.'.'.,.>.$.#.....Y V H H w i b 2 @ # @ 6 W P   ",
"  P W 6 @ # @ 2 b j x G N V Y ....$.*.,.!.'.'.^._.<.<.3.6.9.a.a.9.6.3.<.<.:.(.].{.!.,.*.$.........Y V H H w i b 2 @ # @ 6 W P   ",
"  P W 6 @ # @ 2 b k j F G V Y ....#.$.>.,.'.'.^._.<.<.2.3.0.9.9.0.3.2.<.<.(./.{.~.,.>.$.#.........Y V H H w i b 2 @ # @ 6 W P   ",
"-.P W 6 @ # @ 2 b l l i w V Y ........%.=.'.'.{.].(.:.<.<.3.6.6.3.<.<.:.(.].{.'.'.=.%.........@.` X U H H G F [.}.@ # @ 6 W P   ",
"  ).W 6 @ # @ 2 b l l i w V Y ........%.=.'.'.~.{./.(.<.<.2.3.3.2.<.<.(./.{.~.'.'.=.%.........`  .U T H H N G |.1.@ # @ 6 W P -.",
"-.P W 6 @ # @ 2 b l l i w U X ` @.....%.=.'.'.'.'.^._.<.<.<.<.:.(.(.:._.^.'.'.!.,.*.$.....@.` X U H H H H H H 4.5.@ # @ 6 W P   ",
"  P W 6 @ # @ 2 b l l i w T U  .` ....%.=.'.'.'.'.^._.<.<.<.<.(././.(._.^.'.'.,.>.$.#.....`  .U T H H H H H H 4.5.@ # @ 6 W P   ",
"  = ! 5 # ^ @ 2 b k j F G H H U X ` @.$.*.,.!.'.'.{.].(.:.:.(.].{.{.].].{.'.'.=.%.........Y V H H H H H H H H 4.5.@ ^ # 5 ! =   ",
"  - ~ @ +.] # 2 b j x G N H H T U  .` #.$.>.,.'.'.~.{./.(.(./.{.~.~.{.{.~.'.'.=.%.........Y V H H H H H H H H 4.5.# ] +.@ ~ -   ",
"  . + # ;.;.# 2 b i w H H H H H H V Y ....$.*.,.!.'.'.{.].].{.'.'.'.'.'.'.!.,.*.$.....@.` X U H H H H H H N G |.1.# ;.;.# + .   ",
"  . + # ;.;.# 2 b i w H H H H H H V Y ....#.$.>.,.'.'.~.{.{.~.'.'.'.'.'.'.,.>.$.#.....`  .U T H H H H H H G F [.}.# ;.;.# + .   ",
"  . + # ;.;.# 2 b i w H H H H H H U X ` @.....$.*.,.!.'.'.'.'.'.'.'.'.!.,.*.$.........Y V H H H H H H H H w i b 2 # ;.;.# + .   ",
"  . + # ;.;.# 2 b i w H H H H H H T U  .` ....#.$.>.,.'.'.'.'.'.'.'.'.,.>.$.#.........Y V H H H H H H H H w i b 2 # ;.;.# + .   ",
"  . + # ;.;.# 2 b j x G N H H H H H H V Y ........$.*.=.=.,.!.'.'.!.,.*.$.........@.` X U H H H H H H N G x j b 2 # ;.;.# + .   ",
"  . + # ;.;.# 2 b k j F G H H H H H H V Y ........#.$.%.%.>.,.'.'.,.>.$.#.........`  .U T H H H H H H G F j k b 2 # ;.;.# + .   ",
"  . + # ;.;.# 2 b l l i w H H H H H H V Y ....@.` ` @.....$.*.=.=.*.$.....@.` Y Y X U H H H H H H N G x j l l b 2 # ;.;.# + .   ",
"  . + # ;.;.# 2 b l l i w H H H H H H V Y ....`  . .` ....#.$.%.%.$.#.....`  .V V U T H H H H H H G F j k l l b 2 # ;.;.# + .   ",
"  . + # ;.;.# 2 b l l j x w w G N H H U X Y Y X U U X Y Y Y Y ` @.....@.` X U H H H H H H H H N G x j l l l l b 2 # ;.;.# + .   ",
"  . + # ;.;.# 2 b l l k j i i F G H H T U V V U T T U V V V V  .` ....`  .U T H H H H H H H H G F j k l l l l b 2 # ;.;.# + .   ",
"  . + # ;.;.# 2 b l l l l l l i w H H H H H H H H H H H H H H V Y ....Y V H H H H H H H H H H w i l l l l l l b 2 # ;.;.# + .   "};
