/* XPM */
static char * rock_xpm[] = {
"64 64 9 1",
" 	c #4D9262",
".	c #3E734E",
"+	c #9BADB7",
"@	c #847E87",
"#	c #696A6A",
"$	c #7AB055",
"%	c #407C52",
"&	c #336141",
"*	c #679647",
"                                                                ",
"                      .                               .         ",
"                     . .                             . .        ",
"                ++    .                               .         ",
"             ++++++++++                                         ",
"            +++++++++++                                         ",
"           +++@@@++++#@@                         $              ",
"          +@@@@@@@@@@##@@           ++           $$             ",
"      $   +@@@@@@@@@@###@@       ++++++++++      $$  $          ",
"      $  +@@@@@@@@@@#####@      +++++++++++       $.$$          ",
"      $++++@@@@@@@@@##++##     +++@@@++++#@@      .$$.          ",
"      +++++++@@#@@@@##+++@    +@@@@@@@@@@##@@      ..           ",
"      +++++++###@@@@##@@##    +@@@@@@@@@@###@@                  ",
"      +++@@++++#@@@###@@#+   +@@@@@@@@@@#####@                  ",
"     +@@@#+++#++#+@###@@++ ++++@@@@@@@@@##++##   ++             ",
"$    @@@@#@@@#@++#@##+++@++++++++@@#@@@@##+++@++++++++++        ",
" $   @@@@#@@@#@@##@@@@####+++++++###@@@@##@@#+++++++++++       $",
"$    @@@@#@@@@@@#@@@@@@###+++@@++++#@@@###@@+++@@@++++#@@       ",
"     #@@###@@@@@@#@@@@@@#+@@@#+++#++#+@###@+@@@@@@@@@@##@@      ",
"     ###++##@@@@@#+++@@++@@@@#@@@#@++#@##+++@@@@@@@@@@###@@     ",
"     %##@++##@@@@++@++++++++++@@@#@@##@@@@+@@@@@@@@@@#####@     ",
"      %%%@###@@@+@@+++++++++++@@@@@@#@@@++++@@@@@@@@@##++##     ",
"        %&%&%#####+++@@@++++#@@@@@@@@#@+++++++@@#@@@@##+++@     ",
"          .%%%%%%+@@@@@@@@@@##@@@@@@@#++++++++###@@@@##@@##     ",
"                 +@@@@@@@@@@###@@@@@@+++++@@++++#@@@###@@#+     ",
"                +@@@@@@@@@@#####@@@@+@+@@@#+++#++#+@###@@++     ",
"              ++++@@@@@@@@@##++#######@@@@#@@@#@++#@##+++@+     ",
"             +++++++@@#@@@@##+++@%%%%%@@@@#@@@#@@##@@@@#####    ",
"             +++++++###@@@@##@@##     @@@@#@@@@++#@@@@@@####    ",
"             +++@@++++#@@@###@@#+     #@@###++++++++++@@@###    ",
"            +@@@#+++#++#+@###@@++     ###+++++++++++++@@###%    ",
"           ++@@@#@@@#@++#@##+++@+     %##@+++@@@++++#@@@##%%    ",
"        ++++++++++@@#@@##@@@@#####     %%+@@@@@@@@@@##@@#%%     ",
"       +++++++++++@@@@@#@@@@@@####       +@@@@@@@@@@###@@%      ",
"      +++@@@++++#@@@@@@@#@@@@@@###++    +@@@@@@@@@@#####@       ",
"     +@@@@@@@@@@##@@@@@@#+++@@#+++++++++++@@@@@@@@@##++##       ",
"     +@@@@@@@@@@###@@@@@++@@#@++++++++++++++@@#@@@@##+++@       ",
"    +@@@@@@@@@@#####@@@+@@###+++@@@++++#@@++###@@@@##@@##       ",
"  ++++@@@@@@@@@##++########%+@@@@@@@@@@##@@+++#@@@###@@#+       ",
" +++++++@@#@@@@##+++@%%%%%%%+@@@@@@@@@@###@@#++#+@###@@++       ",
" +++++++###@@@@##@@##$     +@@@@@@@@@@#####@#@++#@##+++@+       ",
" +++@@++++#@@@##++@#+$   ++++@@@@@@@@@##++###@@##@@@@#####      ",
"+@@@#+++#++#+++++++++++ +++++++@@#@@@@##+++@@@@#@@@@@@####      ",
"@@@@#@@@#@+++++++++++++ +++++++###@@@@##@@##@@@@#@@@@++###      ",
"@@@@#@@@#@@+++@@@++++#@@+++@@++++#@@@###@@#+@@@@#+++++++++++    ",
"@@@@#@@@@@+@@@@@@@@@@##@@@@#+++#++#+@###@@++@@@@++++++++++++    ",
"#@@###@@@@+@@@@@@@@@@###@@@#@@@#@++#@##+++@+@@@++++@@@++++#@@   ",
"###++##@@+@@@@@@@@@@#####@@#@@@#@@##@@@@#######+@@@@@@@@@@##@@  ",
"%##@++#++++@@@@@@@@@##++##@#@@@@@@#@@@@@@####%%+@@@@@@@@@@###@@$",
"$%%%@#+++++++@@#@@@@##+++@###@@@@@@#@@@@@@### +@@@@@@@@@@#####@ ",
"   %%%+++++++###@@@@##@@##++##@@@@@#+++@@###++++@@@@@@@@@##++## ",
"      +++@@++++#@@@###@@#+@++##@@@@++@@#@##+++++++@@#@@@@##+++@ ",
"     +@@@#+++#++#+@###@@++%@###@@@+@@#####%+++++++###@@@@##@@## ",
"     @@@@#@@@#@++#@##+++@+%%%%%#######%%%%&+++@@++++#@@@###@@#+ ",
"     @@@@#@@@#@@##@@@@#####  %%%%%%%%%%% .+@@@#+++#++#+@###@@++ ",
"     @@@@#@@@@@@#@@@@@@####               @@@@#@@@#@++#@##+++@+ ",
"     #@@###@@@@@@#@@@@@@###               @@@@#@@@#@@##@@@@#####",
"     ###++##@@@@@#+++@@###%               @@@@#@@@@@@#@@@@@@####",
"     %##@++##@@@@++@@#@##*%               #@@###@@@@@@#@@@@@@###",
"      %%%@###@@@+@@#####%%                ###++##@@@@@#+++@@###%",
"        %%%%%#######%%%%%                 %##@++##@@@@++@@#@##%%",
"           %%*%%%%%%%%                     %%*@###@@@+@@#####%% ",
"            $ $                             $%*%%%#######%%%%%  ",
"             $                               $  %%%%%%%%%%%     "};
