/* XPM */
static char * rock_xpm[] = {
"64 64 6 1",
" 	c None",
".	c #9BADB7",
"+	c #847E87",
"@	c #696A6A",
"#	c #706B72",
"$	c #585959",
"                                                                ",
"                                                 ..             ",
"               ..                             ..........        ",
"            ..........                       ...........        ",
"           ...........                      ...+++....@++       ",
"          ...+++....@++                    .++++++++++@@++      ",
"         .++++++++++@@++                   .++++++++++@@@++     ",
"         .++++++++++@@@++                 .++++++++++@@@@@+     ",
"        .++++++++++@@@@@+               ....+++++++++@@..@@     ",
"      ....+++++++++@@..@@              .......++@++++@@...+     ",
"     .......++@++++@@...+ ..           .......@@@++++@@++@@     ",
"     .......@@@++++@@++..........      ...++....@+++@@@++@.     ",
"     ...++....@+++@@@+...........     .+++@...@..@.+@@@++..     ",
"    .+++@...@..@.+@@@...+++....@++    ++++@+++@+..@+@@...+.     ",
"    ++++@+++@+..@+@@.++++++++++@@++   ++++@+++@++@@++++@@@@@    ",
"    ++++@+++@++@@+++.++++++++++@@@++  ++++..+++++@++++++@@@@    ",
"    ++++@++++++@+++.++++++++++@@@@@+  @..........+@++++++@@@    ",
"    @++@@@++++++@....+++++++++@@..@@  ...........+@...++@@@     ",
"    @@@..@@+++++.......++@++++@@...+ ...+++....@++..++@+@@      ",
"     @@+..@@++++.......@@@++++@@++@@.+++#######$$##+@@@@@       ",
"        +@@@+++....++....@+++@@@++@..++++++++++@@@++@           ",
"            @@@.+++@...@..@.+@@@++..++++++++++@@@@@+            ",
"               ++++@+++@+..@+@@......+++++++++@@..@@            ",
"               ++++@+++@++@@++++.......++@++++@@...+            ",
"               ++++@+..+++@+++++.......@@@++++@@++@@            ",
"               @++..........++++...++....@+++@@@++@.            ",
"               @@...............+++@...@..@.+@@@++..            ",
"                ...+++....@++++++++@+++@+..@+@@...+.            ",
"               .++++++++++@@++@++++@+++@++@@++++@@@@@           ",
"               .++++++++++@@@++++++@++++++@++++++@@@@           ",
"              .++++++++++@@@@@+@++@@@++++++@++++++@@@           ",
"            ....+++++++++@@..@@@@@..@@..+++@...++@@@            ",
"           .......++@++++@@...+ @@+..........++@+@@             ",
"           .......@@@++++@@++@@   ...........@@@@@              ",
"           ...++....@+++@@@++@.  ...+++....@++                  ",
"          .+++@...@..@.+@@@++.. .++++++++++@@++                 ",
"          ++++@+++@+..@+@@...+. .++++++++++@@@++                ",
"          ++++@+++@++@@++++@@@@.++++++++++@@@@@+                ",
"          ++++@++++++@++++++@....+++++++++@@..@@                ",
"          @++..@++++++@+++++.......++@++++@@...+                ",
"          ..........++@...++.......@@@++++@@++@@                ",
"         ...........++..++@+...++....@+++@@@++@.   ..           ",
"        ...+++....@++.++@@@.+++@...@..@.+@@@++............      ",
"       .++++++++++@@++@@@  ++++@+++@+..@+@@...+...........      ",
"       .++++++++++@@@++    ++++@+++@++@@++++@@...+++....@++     ",
"      .++++++++++@@@@@+    ++++@++++++@++++++.++++++++++@@++    ",
"    ....+++++++++@@..@@    @++@@@++++++@+++++.++++++++++@@@++   ",
"   .......++@++++@@...+    @@@..@@+++++@...+.++++++++++@@@@@+   ",
"   .......@@@++++@@++@@     @@+..@@++++..+....+++++++++@@..@@   ",
"   ...++....@+++@@@++@.        +@@@+++.++.......++@++++@@...+   ",
"  .+++@...@..@.+@@@++..            @@@@@@.......@@@++++@@++@@   ",
"  ++++@+++@+..@+@@...+.                  ...++....@+++@@@++@.   ",
"  ++++@+++@++@@++++@@@@@                .+++@...@..@.+@@@++..   ",
"  ++++@++++++@++++++@@@@                ++++@+++@+..@+@@...+.   ",
"  @++@@@++++++@++++++@@@                ++++@+++@++@@++++@@@@@  ",
"  @@@..@@+++++@...++@@@                 ++++@++++++@++++++@@@@  ",
"   @@+..@@++++..++@+@@                  @++@@@++++++@++++++@@@  ",
"      +@@@+++.++@@@@@                   @@@..@@+++++@...++@@@   ",
"          @@@@@@@                        @@+..@@++++..++@+@@    ",
"                                            +@@@+++.++@@@@@     ",
"                                                @@@@@@@         ",
"                                                                ",
"                                                                ",
"                                                                "};
