/* XPM */
static char * tree_xpm[] = {
"64 64 5 1",
" 	c #4D9262",
".	c #3E734E",
"+	c #7AB055",
"@	c #45283C",
"#	c #663931",
"                                             ......             ",
"                      .                     .  ++  .  .         ",
"                     . .                   .  +++   .. .        ",
"             ......   .                   . +++ +    ..         ",
"            .  ++  .                     . +++++ +    .         ",
"           .  +++   .                    . ++++ +     .         ",
"          . +++ +    .                  . ++++ + +   ...        ",
"         . +++++ +    .                .  + +++ +     ...       ",
"      +  . ++++ +     .               +.   + + +       ..       ",
"      + . ++++ + +   ...              +. +  +        ....       ",
"      +.  + +++ +     ...             . +++.       .......      ",
"      +.   + + +       ..             .  +++.......   ....      ",
"       . +  +        ....             . +++            ...      ",
"      . +++.       .......           . ++ + +  +++++++. ...     ",
"      .  +++.......   ....          .  +++    +++++++. . ...    ",
"+     . +++            ...      +   . +++++ +   + + . . ...     ",
" +   . ++ + +  +++++++. ...    + +  .    ++      + . . . ..    +",
"+   .  +++    +++++++. . ...    +  .    . .             ...     ",
"    . +++++ +   + + . . ...        . +   . . .         . ...    ",
"    .    ++      + . . . ..        .+ +   . . . .       .....   ",
"   .    . .             ...        .++ +   ..... .        ...   ",
"   . +   . . .         . ...       .+++ +   .....         ...   ",
"   .+ +   . . . .       .....      . +++ +       .      .  ...  ",
"   .++ +   ..... .        ...      .. +++ +     +++++  .. ....  ",
"   .+++ +   .....         ...     .... . +    .......... . .... ",
"   . +++ +       .      .  ...   . ++.. . .     ....... . . ... ",
"   .. +++ +     +++++  .. ....   .+++......       ...  . . .... ",
"  .... . +    .......... . ....  .+++++                 . ..... ",
" . ++.. . .     ....... . . ...  .. ++ +                 . .... ",
" .+++......       ...  . . ....  ..  ++ +  ++++         . .. .. ",
" .+++++                 . .....  ...  ++  ++++++       . ...... ",
" .. ++ +                 . .... .....      +++       .......... ",
" ..  ++ +  ++++         . .. .. .........                    ...",
" ...  ++  ++++++       . ...... ...                     +    ...",
".....      +++       .......... .  + .         .... ++++   .....",
".........                    ....++ + ...    ..... ++    .......",
"...                     +    ....+++  ........          ...  ...",
".  + .         .... ++++   ......++++  ..................     ..",
".++ + ...    ..... ++    ........ +++++ ..........      + ++  ..",
".+++  ........          ...  ....  +++++             +  +++   ..",
".++++  ..................     .. .  +++     ++++   ++  +    ....",
". +++++ ..........      + ++  ..  ...  ++                 ..... ",
".  +++++             +  +++   ..   ....       ..        ......  ",
" .  +++     ++++   ++  +    ....    .....    ................   ",
"  ...  ++                 .....       ......................    ",
"   ....       ..        ......          ......@@@@@@..          ",
"    .....    ................            ...@@@@@@@@            ",
"+     ......................    +          ####@#@#@            ",
" +      ......@@@@@@..         + +         ####@#@#@           +",
"+        ...@@@@@@@@            +          ######@#@@           ",
"           ####@#@#@                      #@#####@#@@           ",
"           ####@#@#@                     #@@#####@#@@#          ",
"           ######@#@@                       ##@##@@@@@#         ",
"          #@#####@#@@                     .###@#@@@@#           ",
"         #@@#####@#@@#                   . #@@@@@@@@@#          ",
"          . ##@##@@@@@#                   .#        @@          ",
"           ###@#@@@@#    +                               +      ",
"           #@@@@@@@@@# + +                             + +      ",
"           #        @@ + +                             + +      ",
"                       +                               +        ",
"                                                                ",
"             +                               +                  ",
"            + +                             + +                 ",
"             +                               +                  "};
