/* XPM */
static char * tree_xpm[] = {
"64 64 6 1",
" 	c None",
".	c #3E734E",
"+	c #4D9262",
"@	c #7AB055",
"#	c #45283C",
"$	c #663931",
"                                             ......             ",
"                                            .++@@++.            ",
"                                           .++@@@+++.           ",
"             ......                       .+@@@+@++++.          ",
"            .++@@++.                     .+@@@@@+@++++.         ",
"           .++@@@+++.                    .+@@@@+@+++++.         ",
"          .+@@@+@++++.                  .+@@@@+@+@+++...        ",
"         .+@@@@@+@++++.                .++@+@@@+@+++++...       ",
"         .+@@@@+@+++++.                .+++@+@+@+++++++..       ",
"        .+@@@@+@+@+++...               .+@++@++++++++....       ",
"       .++@+@@@+@+++++...             .+@@@.+++++++.......      ",
"       .+++@+@+@+++++++..             .++@@@.......+++....      ",
"       .+@++@++++++++....             .+@@@++++++++++++...      ",
"      .+@@@.+++++++.......           .+@@+@+@++@@@@@@@.+...     ",
"      .++@@@.......+++....          .++@@@++++@@@@@@@.+.+...    ",
"      .+@@@++++++++++++...          .+@@@@@+@+++@+@+.+.+...     ",
"     .+@@+@+@++@@@@@@@.+...         .++++@@++++++@+.+.+.+..     ",
"    .++@@@++++@@@@@@@.+.+...       .++++.+.+++++++++++++...     ",
"    .+@@@@@+@+++@+@+.+.+...        .+@+++.+.+.+++++++++.+...    ",
"    .++++@@++++++@+.+.+.+..        .@+@+++.+.+.+.+++++++.....   ",
"   .++++.+.+++++++++++++...        .@@+@+++.....+.++++++++...   ",
"   .+@+++.+.+.+++++++++.+...       .@@@+@+++.....+++++++++...   ",
"   .@+@+++.+.+.+.+++++++.....      .+@@@+@+++++++.++++++.++...  ",
"   .@@+@+++.....+.++++++++...      ..+@@@+@+++++@@@@@++..+....  ",
"   .@@@+@+++.....+++++++++...     ....+.+@++++..........+.+.... ",
"   .+@@@+@+++++++.++++++.++...   .+@@..+.+.+++++.......+.+.+... ",
"   ..+@@@+@+++++@@@@@++..+....   .@@@......+++++++...++.+.+.... ",
"  ....+.+@++++..........+.+....  .@@@@@+++++++++++++++++.+..... ",
" .+@@..+.+.+++++.......+.+.+...  ..+@@+@+++++++++++++++++.+.... ",
" .@@@......+++++++...++.+.+....  ..++@@+@++@@@@+++++++++.+..+.. ",
" .@@@@@+++++++++++++++++.+.....  ...++@@++@@@@@@+++++++.+...... ",
" ..+@@+@+++++++++++++++++.+.... .....++++++@@@+++++++.......... ",
" ..++@@+@++@@@@+++++++++.+..+.. .........++++++++++++++++++++...",
" ...++@@++@@@@@@+++++++.+...... ...+++++++++++++++++++++@++++...",
".....++++++@@@+++++++.......... .++@+.+++++++++....+@@@@+++.....",
".........++++++++++++++++++++....@@+@+...++++.....+@@++++.......",
"...+++++++++++++++++++++@++++....@@@++........++++++++++...++...",
".++@+.+++++++++....+@@@@+++......@@@@++..................+++++..",
".@@+@+...++++.....+@@++++........+@@@@@+..........++++++@+@@++..",
".@@@++........++++++++++...++....++@@@@@+++++++++++++@++@@@+++..",
".@@@@++..................+++++.. .++@@@+++++@@@@+++@@++@++++....",
".+@@@@@+..........++++++@+@@++..  ...++@@+++++++++++++++++..... ",
".++@@@@@+++++++++++++@++@@@+++..   ....+++++++..++++++++......  ",
" .++@@@+++++@@@@+++@@++@++++....    .....++++................   ",
"  ...++@@+++++++++++++++++.....       ......................    ",
"   ....+++++++..++++++++......          ......######..          ",
"    .....++++................            ...########            ",
"      ......................               $$$$#$#$#            ",
"        ......######..                     $$$$#$#$#            ",
"         ...########                       $$$$$$#$##           ",
"           $$$$#$#$#                      $#$$$$$#$##           ",
"           $$$$#$#$#                     $##$$$$$#$##$          ",
"           $$$$$$#$##                       $$#$$#####$         ",
"          $#$$$$$#$##                      $$$#$####$           ",
"         $##$$$$$#$##$                     $#########$          ",
"            $$#$$#####$                    $        ##          ",
"           $$$#$####$                                           ",
"           $#########$                                          ",
"           $        ##                                          ",
"                                                                ",
"                                                                ",
"                                                                ",
"                                                                ",
"                                                                "};
