/* XPM */
static char * victory1_xpm[] = {
"48 48 6 1",
" 	c #4D9262",
".	c #7AB055",
"+	c #3E734E",
"@	c #D7CFCE",
"#	c #E8DF50",
"$	c #FFE4C4",
"         ..  .                .          ..  .  ",
"          .+..                .           .+..  ",
".         +..+                . .         +..+  ",
".          ++                 . .          ++   ",
".                               .               ",
"                                                ",
"                                                ",
"                        .   @@@@@@@@            ",
"                       . .  @@@@@@@@            ",
"                        .@@@########@           ",
"             @@@@@      @###########@           ",
"             @@@@@      @###########@           ",
"            @@@###@   @@############@           ",
"  +         @######@@ @@############@           ",
" + +        @######@@ @@############@           ",
"  +       @@#########@########@@@###@           ",
"          @@####@@##########@@@@@#@@@           ",
"          @@####@@##########@@@@@#@@@          .",
"          @@###@@@@@@####@@@@@@@@@@@@@@        .",
"         @#####@@@@@@#@@@@@@@@@@@@@@###@       .",
"         @#####@@@@@@#@@@@@@@@@@@@@@###@        ",
"     .   @#####@@@@@@@@@@@@@@@@@@######@        ",
"    . .   @@###@@@@@@@@@@@@@@@@@@######@        ",
"     .    @@###@@@@@@@@@@@@@@@@@@######@        ",
"          @@###@@@@@@@@@$$$@@@@@@@#####@        ",
"         @@@@##@@@@@@@$$$$$$@@@@@@#####@      + ",
"         @@@@##@@@@@@@$$$$$$@@@@@@#####@     + +",
"       @@####@@@@@@@@@$$$$$$@@@@@@##@@@       + ",
"       @@####@@@@@@@@@$$$$$$@@@@@###@           ",
"       @@####@@@@@@@@@$$$$$$@@@@@###@           ",
"       @@###@@@@@@@@@@@@@@@@@@#######@@  .      ",
"         @##@@@@@@######@@@@@@#########@ ..     ",
"         @##@@@@@@######@@@@@@#########@ ..  .  ",
"         @###@@##########@@@@@#########@  .+..  ",
".         @@@##############@###########@  +..+  ",
".         @@@##############@###########@   ++   ",
".            @@#########@@@@########@@@         ",
"               @######@@    @@@@@@@@            ",
"               @######@@    @@@@@@@@            ",
"                @@@@@@  .                       ",
"                       . .                      ",
"                        .                       ",
"                                                ",
"                                                ",
"                                                ",
"  +                               +             ",
" + +                             + +            ",
"  +                               +             "};
