/* XPM */
static char * victory3_xpm[] = {
"48 48 6 1",
" 	c #4D9262",
".	c #7AB055",
"+	c #3E734E",
"@	c #DF7126",
"#	c #D7CFCE",
"$	c #FFE4C4",
"         ..  .                .          ..  .  ",
"          .+..                .           .+..  ",
".         +..+                . .         +..+  ",
".          ++                 . .          ++   ",
".                               .               ",
"                                                ",
"                                                ",
"                        .                       ",
"                       . .                      ",
"                        .                       ",
"                     @@@ @@@                    ",
"                    @@@@@@@@@@                  ",
"                    @@@@@@@@@@                  ",
"  +                 @@@@@@@@@@    +             ",
" + +                @@@@@@@@@@   + +            ",
"  +                  @@@@@@@      +             ",
"                 .   @@@@@@@                    ",
"               . .     @@@@                    .",
"               . .      @                      .",
"               .        @                      .",
"    #####                                       ",
"   $$$$##                            . $$$      ",
"   $$$$##                           . .$$$      ",
"   $$$$$$                            . $$$$$$   ",
" ##$$$$$$$                            $$$$$$$## ",
"   #$$$$$$$   +                       $$$$$$$## ",
"   #$$$$$$$  + +                      $$$$$$$##+",
"    ######    +                       ###$$$$## ",
"                                         #      ",
"                                         #      ",
"         .                               .      ",
"         ..                              ..     ",
"         ..  .                .          ..  .  ",
"          .+..                .           .+..  ",
".         +..+                . .         +..+  ",
".          ++                 . .          ++   ",
".                               .               ",
"                                                ",
"                                                ",
"                        .                       ",
"                       . .                      ",
"                        .                       ",
"                                                ",
"                                                ",
"                                                ",
"  +                               +             ",
" + +                             + +            ",
"  +                               +             "};
