/* XPM */
static char * walk2_xpm[] = {
"32 64 13 1",
" 	c #4D9262",
".	c #36323F",
"+	c #4B4967",
"@	c #72708D",
"#	c #FFE4C4",
"$	c #000000",
"%	c #E89B72",
"&	c #6E5C4F",
"*	c #763441",
"=	c #9A3448",
"-	c #A58E77",
";	c #3D2F2C",
">	c #282322",
"                                ",
"                                ",
"                                ",
"                                ",
"                                ",
"                                ",
"                                ",
"                                ",
"                                ",
"                                ",
"                                ",
"                                ",
"                                ",
"                                ",
"                                ",
"                                ",
"          .........             ",
"        ..+++++++++.            ",
"       .++++++++++++.           ",
"      .@@@@+++++++++@.          ",
"     .@@@@@@@@@@@@@@@@.         ",
"     .@@@++++++++++++++.        ",
"    .@+++++++++++++++++.        ",
"    .++++++++++++++++++.        ",
"   .+++++++++++++++++...        ",
"   .+++++++++++++++.....        ",
"   .++++++++++++++......        ",
"   .+++++++++++++..###..        ",
"   ..++++.++++++..#$$##.        ",
"   ..++++...+++..##$$##.        ",
"   ..++++...+.##.##$$##.        ",
"    ..++......#####$$##.        ",
"    ..++........######.         ",
"     ..+........####%..         ",
"      .........&&***..          ",
"         ....&&&&==*            ",
"           &&----==**           ",
"           &-----==**           ",
"          &---&---***&          ",
"         &----&------&&         ",
"         &---&------&--&        ",
"        &----&------&---&       ",
"       &----&&------&&---&      ",
"       &---&&&---;--- &--&&     ",
"      #&---&&---;;;--  &&&%%    ",
"     ###&&& &--------   %%%%    ",
"     ####  &&--------   %%%     ",
"     %##%  &&--------           ",
"      %%   >;;;;;;;;;           ",
"           >;;;;;;;;;;          ",
"          >>;;;;;;;;;;          ",
"          >>>>;;;;;;;#          ",
"          >>>%%% %####          ",
"          >>%%%%  ####          ",
"            %&&&   ###          ",
"            &&&&   &&#          ",
"            &&&&  &&&&          ",
"            &&&   &&&&          ",
"            &&&  &&&&           ",
"            &&& >>&&&           ",
"            >&& >>>>            ",
"           >>>> >>>>>>          ",
"           >>>>>>>>>>>          ",
"           >>>>>>               "};
