/* XPM */
static char * enemy_patrol2_xpm[] = {
"64 64 56 1",
" 	c #4D9262",
".	c #3E734E",
"+	c #000000",
"@	c #2F373A",
"#	c #343C40",
"$	c #40494E",
"%	c #4A565C",
"&	c #455056",
"*	c #3B4348",
"=	c #7AB055",
"-	c #2A3033",
";	c #1E2325",
">	c #606F76",
",	c #556269",
"'	c #1B0000",
")	c #5E2828",
"!	c #F2F2F2",
"~	c #160000",
"{	c #D7AEAE",
"]	c #D7D7D7",
"^	c #8B7E71",
"/	c #5E3636",
"(	c #C9A1A1",
"_	c #C99494",
":	c #AEAEAE",
"<	c #6B3636",
"[	c #9F9388",
"}	c #A4A4A4",
"|	c #A1A1A1",
"1	c #BCBCBC",
"2	c #6E6E6E",
"3	c #515151",
"4	c #51000D",
"5	c #43000D",
"6	c #7C7C7C",
"7	c #949494",
"8	c #797979",
"9	c #510D0D",
"0	c #430000",
"a	c #290000",
"b	c #868686",
"c	c #510D1B",
"d	c #360000",
"e	c #898989",
"f	c #5E5E5E",
"g	c #979797",
"h	c #B1B1B1",
"i	c #B4AAA0",
"j	c #EAE7E7",
"k	c #926E6E",
"l	c #847874",
"m	c #C9C9C9",
"n	c #916666",
"o	c #976E6E",
"p	c #916161",
"q	c #242A2C",
"                                                                ",
"                      .                               .         ",
"                    +++++                            . .        ",
"                  ++@@###+                            .         ",
"                 +@@##$$$#+                                     ",
"                 +##$$#++$#+                     ++++++         ",
"                +@$$#++  ++                    ++%%%&&$++       ",
"               +@#$#+                         +&%%&&$$***+      ",
"      =        +@##-+=                =      +&%%&$$**####+     ",
"      =       +-@#-+==                =    ++*%%&$**######++    ",
"      = =     +-@#-+=.                = = +*$&&$*#--++++-###+   ",
"      = =     +;-@#-+                 = =+*$&%$*##++.   +-##+   ",
"        =     +;-@#-+                   =+$&%&*##-+      +###+  ",
"              +;;-##-+                 ++#&>&$##-+       +-##+  ",
"               +;;@%$#+               +#*$>&$*-++         +-#+  ",
"=              +;;@#,$-++     ++=    +-#*&&$*#+           +-#+  ",
" =              +;-@#,#--+  ++;;++  ++#$%>$*##+           +-#+ =",
"=               +;;-@#$#--++;;----++--*$>&**#-+            +-+  ",
"                 +;;;-#$;+----####****$%&$*#-+              +   ",
"                  +;;;@++;---###**$$$$$$*###-+                  ",
"                   +;;+;;--####*$$%%%%$$*###-+                  ",
"          .         ++;;--####*$$%$$$$$$*#--+                   ",
"         . .         +---#####$%#-,,,%$%$*-++                   ",
"          .         +;--######*#-%>>>,-$$*#-+                   ",
"                    +;-##*#####-$;;;;;#-#$#--+           =      ",
"                   +;;#'*$*###-$;)!~{);--###-+         = =      ",
"          ++++     +;-']'#*#*#;-^/({_)^-;###--+        = =      ",
"         +;;;;+++  +;']:'##'#*-;-^/</[-;-###--+        =        ",
"       ++;----;;;+++;':'}''|'##-;-^^^^;-#####-+                 ",
"      +;;-####--;;;+'}''}]1:''*#-;;;;;-######-+                 ",
"     +-###########;'2345'67'38'**######*$$*##-+                 ",
"    +-##$$$$$$####-'23940''a'7'*$******$$$$*##+                 ",
"   +-#$$++++++$####-'bc450ddae'#**#####**$$*##+                 ",
"   +#$++      +$$###'f'945dda7'###;;;;-##*$*#-+       .         ",
"   +++         +++$#'b'4'4''b3'-#-#$,,-#;-##--+      . .        ",
"                  +$#'8'b'13ge'-#-;;;;;#$###--+       .         ",
"                   +$'bb3b]3h:'--;ij~kl;-##--+                  ",
"                    +;':'1]'m'---;inopl;-##-++                  ",
"                 =   +;';'';'----#;;;;;-##-+#$+  =              ",
"                 ==   +;;;;;-----------##-+#%%#+ ==             ",
"      =          ==  = +;;;---#-------##-+#$,,$#+==  =          ",
"      =           =.==  ++;--###--q------+#$$>$#+ =.==          ",
"      = =         .==.  +;-#$$#-;+----+++ +-#$,%$+.==.          ",
"      = =          ..   +;#$$$#;++++++= =  +-#>%$#+..           ",
"        =              +;-$$$$;+        =   +->%$#+             ",
"                       +;-$$$#+             +->%$#+             ",
"                      +;-#%$#-+              +,%$#+             ",
"=                     +;-#%$#-+ =       ++  +$%$#+              ",
" =                    +;-#%$#-+= =     +#$++$$%$#+             =",
"=                      +;-$%$#+ =       +#$%%%$#+               ",
"                        +;-#$$#+         ++###++                ",
"                         +;-#$$#++         +++                  ",
"                         +;;-#$$%,+                             ",
"          .               +;;-$$$%+       .                     ",
"         . .               +++--#$%+     . .                    ",
"          .                   ++-#$%+     .                     ",
"                         =      +#$%+                    =      ",
"                       = =       +$%+                  = =      ",
"                       = =       +#+                   = =      ",
"                       =         +#+                   =        ",
"                                  +                             ",
"             =                               =                  ",
"            = =                             = =                 ",
"             =                               =                  "};
