/* XPM */
static char * enemy_patrol3_xpm[] = {
"64 64 46 1",
" 	c None",
".	c #000000",
"+	c #343C40",
"@	c #3B4348",
"#	c #40494E",
"$	c #2A3033",
"%	c #455056",
"&	c #1E2325",
"*	c #2F373A",
"=	c #4A565C",
"-	c #3F484D",
";	c #353D41",
">	c #556269",
",	c #606F76",
"'	c #8B7E71",
")	c #9F9388",
"!	c #743E3E",
"~	c #1B0000",
"{	c #C9AEAE",
"]	c #6B3636",
"^	c #D7AEAE",
"/	c #C99494",
"(	c #5E2828",
"_	c #D7D7D7",
":	c #5E3636",
"<	c #AEAEAE",
"[	c #A4A4A4",
"}	c #BCBCBC",
"|	c #515151",
"1	c #6E6E6E",
"2	c #43000D",
"3	c #7C7C7C",
"4	c #797979",
"5	c #868686",
"6	c #51000D",
"7	c #430000",
"8	c #360000",
"9	c #290000",
"0	c #898989",
"a	c #B1B1B1",
"b	c #C9C9C9",
"c	c #847874",
"d	c #EAE7E7",
"e	c #160000",
"f	c #926E6E",
"g	c #B4AAA0",
"                                                                ",
"                       ...                                      ",
"                      .+@+.                                     ",
"                    ..@@+.                                      ",
"                   .+@#+.                                       ",
"                  .+@#$.                                        ",
"                 .+@#$.                                         ",
"                 .@#+.                                          ",
"                .+#+.                           .......         ",
"                .+#+.                        ...$+####+...      ",
"               .$+#$.                      ..#%%%%%#####%#.     ",
"               .&*#$.                     .#%=%%%%#@@@@@-%#.    ",
"               .&*#+.                    .#%==##@@+$$$$$;@%+.   ",
"               .&$=+..                 ..#%==%@+++$.....$+@#.   ",
"               .&&=#+$.               .#@#%%#@+$...     ..+++.  ",
"               .&&*=#+.              .+@#%%#@+$.         .$++.  ",
"                .&*+>#$..    ..      .+@%,#@++.          .$++.  ",
"                .&$*+>+$$....&&......+#=,%@++$.           .$+.  ",
"                 .&&$*##&.&$$$$++++++#=%#@+$..            .$+.  ",
"                 .&&&$+#.&$$$$+++@@@@#=%#@+$.             .$+.  ",
"                  .&&&..&$$$+++@@######@+@+.             .$+.   ",
"                   .&.&&$$++++@#@######@++$.             .+.    ",
"                    ..$$$++++@#==####=##@+.               .     ",
"                    .&$$+++++@=+#$$$$#=#@+.                     ",
"                   .&&$++++++@+$$=>>=$##@+$.                    ",
"                   .&$++@@++++$#=>,,>=$+#@$$.                   ",
"          ....    .&$$++@@@+++&')!~{!)&$+#+$$.                  ",
"        ..&&&&..  .&$$~++++@++$')]^/()$&+++$$.                  ",
"       .&&$$&&&&...&$~_~++++@+&$')]:)'&$+++$$.                  ",
"      .&$+++$$&&&&.&~~<~~~~++@$&$''''$$+++++$.                  ",
"     .$+++#+++$$&&&~[}~[_|<~+@@+$$$$$$+@@@++$$.                 ",
"     .++##.##++$$&~~1~2~[||<~+@@++++++@###++$$.                 ",
"    .++#.. ..#++$$~1~22~3~~~4~@#@@@@@@####@++$.                 ",
"    .+#.     .#++$&~5~67~789~<~@@@++++@@##@++$.                 ",
"   .+#.       ..#+&~[~6~6~~8~5~&&$$$$$&$+@++$$.                 ",
"   .+#.         .#$&~_~5~||~0|~+$+#>>#+&$++$$.                  ",
"   .#.           .$&~<5|5||a<~$+$&&&&&+#+++$$.                  ",
"   .#.           .$&&~<~}~~b~&$$&cdefg&$++$$..                  ",
"    .             ...&~&~&&~&$++$&gfgc$+++$.#+.                 ",
"                    ..&&&&&&$+++++&&&&$++$.#=#.                 ",
"                     .&&&.&$$$++++$$$$++$.+#>=+.                ",
"                      .&.&$$$$$$++$$$$+$.$+##=#.                ",
"                      ..&$++++$$&.$$$$.. .$+##>#.               ",
"                      .&$$++++$&.$$$$.    .$+#,#+.              ",
"                     .&&$+++++&......      .+#,#+.              ",
"                     .&$++++$$.         .   .+,#+.              ",
"                     .$$+=+&..         .+.  .+>#+.              ",
"                     .$$#=$.           .+#. .#=+.               ",
"                     .$$#=$.            .+..#=#+.               ",
"                     .&$+=$.            .+===#+.                ",
"                     .&&$++$..           ......                 ",
"                     .&&$+#+$&..                                ",
"                      .&&$######...                             ",
"                       ..&$+#####==...                          ",
"                         .....&&$$+#=>.                         ",
"                              .....$#=.                         ",
"                                   .$#.                         ",
"                                    .$=.                        ",
"                                    .$=.                        ",
"                                    .#.                         ",
"                                   .+#.                         ",
"                                   ...                          ",
"                                                                ",
"                                                                "};
