/* XPM */
static char * enemy_patrol1_xpm[] = {
"64 64 56 1",
" 	c #4D9262",
".	c #3E734E",
"+	c #000000",
"@	c #2A3033",
"#	c #2F373A",
"$	c #343C40",
"%	c #40494E",
"&	c #455056",
"*	c #3B4348",
"=	c #7AB055",
"-	c #1E2325",
";	c #606F76",
">	c #4A565C",
",	c #556269",
"'	c #1B0000",
")	c #D7D7D7",
"!	c #5E2828",
"~	c #F2F2F2",
"{	c #A19494",
"]	c #D7AEAE",
"^	c #AEAEAE",
"/	c #8B7E71",
"(	c #5E3636",
"_	c #BCAEAE",
":	c #C9AEAE",
"<	c #743E3E",
"[	c #A4A4A4",
"}	c #BCBCBC",
"|	c #6B3636",
"1	c #9F9388",
"2	c #6E6E6E",
"3	c #43000D",
"4	c #515151",
"5	c #7C7C7C",
"6	c #949494",
"7	c #797979",
"8	c #51000D",
"9	c #430000",
"0	c #290000",
"a	c #868686",
"b	c #510D0D",
"c	c #360000",
"d	c #5E5E5E",
"e	c #979797",
"f	c #898989",
"g	c #B4AAA0",
"h	c #EAE7E7",
"i	c #160000",
"j	c #926E6E",
"k	c #847874",
"l	c #B1B1B1",
"m	c #916666",
"n	c #976E6E",
"o	c #916161",
"p	c #C9C9C9",
"q	c #242A2C",
"                                                                ",
"                      .                               .         ",
"                   +++++                             . .        ",
"                  +@@@@@+                             .         ",
"                 +@#####@+                        ++++          ",
"                +@#$%%%%#@+                    +++%%%%++++      ",
"               +#$%%$@+@$%+                   +%%&%*****%%+     ",
"               +#$%$@+ +@$+                  +%&&%***$$***%+    ",
"      =       +@#$$@+=  +@+           =     +%&&%**$$@@$$$*%+   ",
"      =       +@#$$@+=   ++           =   ++%&&%**$@@++@@@$*%+  ",
"      = =     +-@#%$@+                = =+%&&&**$@+++. ++++@$*+ ",
"      = =     +-@#%$@+                = =+%&&%*$@+ ..      +@$+ ",
"        =     +--@%%$@+                 +$&;%*$@+           +@+ ",
"               +-@$%%$+++             ++$*;>%*$@+            +  ",
"                +-#$$%$@@+    ++     +$$*&&%*$++                ",
"=               +-@#$$%$$@+ ++--++   +%%>;%**$+                 ",
" =               +-@#$%%%$++--@@@@+++@&%;&**$@+                =",
"=                +--@#$$$$--@@@@@@@@@$&>&%*$$@+                 ",
"                  +---#++-@@@$$$**%%%%%%*$$$@+                  ",
"                   +--+--@@$$$$*%%>>>>%%*$$@+                   ",
"                    +---@@$$$$*%%>%%%%%%*$@@+                   ",
"          .          +-@@@$$$$%%>@@@@@>%%*@+                    ",
"         . .        +-@$$$$$$$*$@>;;;,@%%*$@+                   ",
"          .         +-$'$*$$$$$@%-----$@$%$@@+                  ",
"                   +-@')'$*$$$@%-!~{]!-@@$$$@+           =      ",
"                   +-')^''''$$@-/(_':</-@$$$@@+        = =      ",
"        +++++++    +'[''[)}^'$@-@/(|(1@-@$$$@@+        = =      ",
"      ++@@@----+++ +'2'3'[}4^'$@-@////-@$$$$$@+        =        ",
"     +@@$$$@@@----+'2433'56'47'$@-----@$$$$$$@+                 ",
"  +++@$$$$$$$$@----'24389''0'6'*$@@@@@$$**$$$@+                 ",
" +@%%%+++++%%%$$$$@'2a3b83cc05'*%******%%%%*$$+                 ",
"  ++++     +++%$$$$@'d3888c006'$**$$$$$**%%*$$+                 ",
"              +%%$$$'a3b83cc07'$$$----@$$*%*$@+                 ",
"               ++%$$'d3b83cc05'$--@@@@--@$*$$@+       .         ",
"                 ++%'7'8'8''a['@$@-----$%$$$@@+      . .        ",
"                   +-'7'a'}4ef'@@-ghijk-@$$@@+        .         ",
"                    +''a4a)4l^'$@-gmnok-@$$@++                  ",
"                     +a^4})'p'$$$@-----@$$@+@$+                 ",
"                 =    +'''+-'@@$$$@@@@@$$@@%,>$+ =              ",
"                 ==    +-+-@@@@@@$q@@@$$@+%%>,%$+==             ",
"      =          ==  =  +-@@@$@@@@q@@@@@@+$%%>%$+==  =          ",
"      =           =.==  +-@$$$@@@-@@@@@+++@$%%;%$+=.==          ",
"      = =         .==.  +@$%>%@-+++++++ = ++@$>,%$+==.          ",
"      = =          ..  +-@%>%$-+      = =   +$%;%$+..           ",
"        =              +@$>%$@+         =   +$%;%$+             ",
"                       +@$>$@-+              +%;%$+             ",
"                       +-@%$@+               +%>%$+             ",
"=                       +@%$@+  =            +>%$+              ",
" =                      +@%$@+ = =          +$%%$+             =",
"=                        +$%$@+ =         ++$>%$+               ",
"                         +$$%>+          +$$$$++                ",
"                         +@$$%$+          ++++                  ",
"                          +@$%$+                                ",
"          .                +@$>$+         .                     ",
"         . .                +$>$+        . .                    ",
"          .                 +$>$+         .                     ",
"                         =   +%$+                        =      ",
"                       = =   +%+                       = =      ",
"                       = =   +%+                       = =      ",
"                       =     ++                        =        ",
"                                                                ",
"             =                               =                  ",
"            = =                             = =                 ",
"             =                               =                  "};
