/* XPM */
static char * enemy_patrol_dead_xpm[] = {
"64 64 39 1",
" 	c None",
".	c #000000",
"+	c #1E2325",
"@	c #2A3033",
"#	c #3B4348",
"$	c #2F373A",
"%	c #455056",
"&	c #343C40",
"*	c #40494E",
"=	c #606F76",
"-	c #4A565C",
";	c #556269",
">	c #24292C",
",	c #8D7878",
"'	c #B2A2A2",
")	c #B8A7A7",
"!	c #B29D9D",
"~	c #1B0000",
"{	c #887878",
"]	c #D7D7D7",
"^	c #AEAEAE",
"/	c #7C7C7C",
"(	c #A4A4A4",
"_	c #515151",
":	c #6E6E6E",
"<	c #43000D",
"[	c #51000D",
"}	c #290000",
"|	c #868686",
"1	c #430000",
"2	c #360000",
"3	c #797979",
"4	c #510D0D",
"5	c #A1A1A1",
"6	c #898989",
"7	c #979797",
"8	c #BCBCBC",
"9	c #949494",
"0	c #242A2C",
"                                                                ",
"                                                                ",
"                                                                ",
"                                                                ",
"                                                                ",
"                                                                ",
"                                                                ",
"                                                                ",
"                                                                ",
"                                                                ",
"                                                                ",
"                                                                ",
"                                                                ",
"                                                                ",
"                                                                ",
"                                                                ",
"                                                                ",
"                                                                ",
"                                                                ",
"                          ..                                    ",
"                      ....++....  ....     .......              ",
"                     .++@@@@++++..++++.. ..+@###@@..            ",
"                    .++@$$$$@++..+@@@@++.++@##%%%#@@.           ",
"                   .+@@$&&&&$$.+@@@@@@@@@@@##*===-###.          ",
"                  .++@$&&&&&@.+@@@@&&&&&&&&###---=-&#@.         ",
"                 .++@$$&&&*&.+@@@&&&&&########***-=-&&@.        ",
"                 .+@$&&***@.@@@&&&&##**----***##..*-=*#.        ",
"                 .@@$&***&.+@&&&&###**-****--*#@@@.*--*&..      ",
"                .+@$&**&@.@@&&&&####-*&@@@@&&***&@.#*-=%*#.     ",
"                .+$$***@.+@&&&&#####*&@-;;;@@*-*&@@.#*--%*.     ",
"                .@$&**&.++&&&&&##&&#&@-;===-*@-*&&@.@**%-%.     ",
"                .@$**&@.+@&&&&&&&&&&@*--;;;-**+&#&@@.##**%%.    ",
"                .@$**@.++@&&&&&&&&&&**********+@*&&@.&##*%%.    ",
"                .$&**@.++@&&&&#&&&&@>>+,')!++>@@&&&@@.@##*%*.   ",
"                .$&*&@.++@~~~&&&&&&@@>>+{,{>>>@@&&&@@.@&##*%.   ",
"                .$&*&@.++~]^~~~~~&&&@@@>+++@@@@&&&&@@.@@&##*.   ",
"                .@&*&@.~~^^/](_(]~&&&@@@@@@@@@&&&&&&@@.@&&#*.   ",
"                ..$*&.+~:]~~](_(^~&#&&@@@@@@&&###&&&@@.@@&##*.  ",
"                 .$*&.~:_~<~/~~~~^~###&&&&&&&&***#&&@@..@@&#*.  ",
"                 .$&@.~:_~<[~}}}~]~##*########****#&&@..@@&#*.  ",
"    ...          .@$@.+~|~<[112}~]^~&##&&&&&&&##**#&&@..@@&#*.  ",
"   .@@*.        ..@$@.@+~3~4[<122~^]~&@++++++@&&**#&@@. .@&#*.  ",
"   .@&.      ...*.@$@.@+~5~4[<~~2~_|~@+@@@@@@+@&##&&@@. .@&#*.  ",
"  .@*.     ..***&&.$.@&+~^3~~~__~6|~@@&&&*;***@@&&&@@.  .@&#*.  ",
"  .@&*.....***&&&&..+@@+~^^||~__77~+@&@@@@@@@@*&&&&@@.  .@##*.  ",
"  .@&&*****&&&&&@@@@@@@++~|^8|_~~~++@@++++++++@&&&@..   .@#*.   ",
"  .@@&&&&&&&&@@@+++++....+~59_~~+++@&&@@0++0@@&&&@.@@.   .&#.   ",
"   .@@@@@&&@@@+++++...   .+~~~++++@@&&@@@00@@@&&&.@&&..  .&#.   ",
"    .....@@........       .++++++@@@&&&&@@@@@@&&.@;;-&&. .#*.   ",
"         ..                .+++@@@@@@@&&0@@@@&@.@&-=;*&..#*.    ",
"                           .+++@@&&&@@@00@@@@@@.@&**-;-&...     ",
"                           .++@&&&&&@.+.@@@@@@@.@@&**=;&.       ",
"                           .++@&&***@+.@@@@@@@......*-=&&.      ",
"                           .+@&&***&++.++.....&&*--*.***&&.     ",
"                           .+@&&*-*&@+...++@@&**-**&&.**&&.     ",
"                            .+@&*--*&&+++@@&&-**&&&..&**&&.     ",
"                             .+&&*--&&@@@&&*-*&&@.. .&**&&.     ",
"                             .+@&**-*******-*&@@.   .&&;*&.     ",
"                              .+@&&********&@@..     .&*-*.     ",
"                               ..@&&&&&&&&&@@.       .&&*-..    ",
"                                 ............         .&&&*-.   ",
"                                                       ..&&*-.  ",
"                                                         ....   ",
"                                                                "};
