/* XPM */
static char * enemy_patrol3_xpm[] = {
"64 64 48 1",
" 	c #4D9262",
".	c #3E734E",
"+	c #000000",
"@	c #343C40",
"#	c #3B4348",
"$	c #40494E",
"%	c #2A3033",
"&	c #7AB055",
"*	c #455056",
"=	c #1E2325",
"-	c #2F373A",
";	c #4A565C",
">	c #3F484D",
",	c #353D41",
"'	c #556269",
")	c #606F76",
"!	c #8B7E71",
"~	c #9F9388",
"{	c #743E3E",
"]	c #1B0000",
"^	c #C9AEAE",
"/	c #6B3636",
"(	c #D7AEAE",
"_	c #C99494",
":	c #5E2828",
"<	c #D7D7D7",
"[	c #5E3636",
"}	c #AEAEAE",
"|	c #A4A4A4",
"1	c #BCBCBC",
"2	c #515151",
"3	c #6E6E6E",
"4	c #43000D",
"5	c #7C7C7C",
"6	c #797979",
"7	c #868686",
"8	c #51000D",
"9	c #430000",
"0	c #360000",
"a	c #290000",
"b	c #898989",
"c	c #B1B1B1",
"d	c #C9C9C9",
"e	c #847874",
"f	c #EAE7E7",
"g	c #160000",
"h	c #926E6E",
"i	c #B4AAA0",
"                                                                ",
"                      .+++                            .         ",
"                     .+@#@+                          . .        ",
"                    ++##@+                            .         ",
"                   +@#$@+                                       ",
"                  +@#$%+                                        ",
"                 +@#$%+                          &              ",
"                 +#$@+                           &&             ",
"      &         +@$@+&                &         +++++++         ",
"      &         +@$@+&                &      +++%@$$$$@+++      ",
"      & &      +%@$%+.                & &  ++$*****$$$$$*$+     ",
"      & &      +=-$%+                 & & +$*;****$#####>*$+    ",
"        &      +=-$@+                   &+$*;;$$##@%%%%%,#*@+   ",
"               +=%;@++                 ++$*;;*#@@@%+++++%@#$+   ",
"               +==;$@%+               +$#$**$#@%+++     ++@@@+  ",
"&              +==-;$@+         &    +@#$**$#@%+         +%@@+  ",
" &              +=-@'$%++    ++& &   +@#*)$#@@+          +%@@+ &",
"&               +=%-@'@%%++++==++++++@$;)*#@@%+           +%@+  ",
"                 +==%-$$=+=%%%%@@@@@@$;*$#@%++            +%@+  ",
"                 +===%@$+=%%%%@@@####$;*$#@%+             +%@+  ",
"                  +===++=%%%@@@##$$$$$$#@#@+             +%@+   ",
"          .        +=+==%%@@@@#$#$$$$$$#@@%+             +@+    ",
"         . .        ++%%%@@@@#$;;$$$$;$$#@+.              +     ",
"          .         +=%%@@@@@#;@$%%%%$;$#@+                     ",
"                   +==%@@@@@@#@%%;'';%$$#@%+             &      ",
"                   +=%@@##@@@@%$;'))';%@$#%%+          & &      ",
"          ++++    +=%%@@###@@@=!~{]^{~=%@$@%%+         & &      ",
"        ++====++  +=%%]@@@@#@@%!~/(_:~%=@@@%%+         &        ",
"       +==%%====+++=%]<]@@@@#@=%!~/[~!=%@@@%%+                  ",
"      +=%@@@%%====+=]]}]]]]@@#%=%!!!!%%@@@@@%+                  ",
"     +%@@@$@@@%%===]|1]|<2}]@##@%%%%%%@###@@%%+                 ",
"     +@@$$+$$@@%%=]]3]4]|22}]@##@@@@@@#$$$@@%%+                 ",
"    +@@$++ ++$@@%%]3]44]5]]]6]#$######$$$$#@@%+                 ",
"    +@$+     +$@@%=]7]89]90a]}]###@@@@##$$#@@%+       .         ",
"   +@$+       ++$@=]|]8]8]]0]7]==%%%%%=%@#@@%%+      . .        ",
"   +@$+         +$%=]<]7]22]b2]@%@$''$@=%@@%%+        .         ",
"   +$+           +%=]}72722c}]%@%=====@$@@@%%+                  ",
"   +$+           +%==]}]1]]d]=%%=efghi=%@@%%++                  ",
"    +            &+++=]=]==]=%@@%=ihie%@@@%+$@+  &              ",
"                 && ++======%@@@@@====%@@%+$;$+  &&             ",
"      &          &&  +===+=%%%@@@@%%%%@@%+@$';@+ &&  &          ",
"      &           &.&&+=+=%%%%%%@@%%%%@%+%@$$;$+  &.&&          ",
"      & &         .&&.++=%@@@@%%=+%%%%++&+%@$$'$+ .&&.          ",
"      & &          .. +=%%@@@@%=+%%%%+& & +%@$)$@+ ..           ",
"        &            +==%@@@@@=++++++   &  +@$)$@+              ",
"                     +=%@@@@%%+         +   +@)$@+              ",
"                     +%%@;@=++         +@+  +@'$@+              ",
"&                    +%%$;%+    &      +@$+ +$;@+               ",
" &                   +%%$;%+   & &      +@++$;$@+              &",
"&                    +=%@;%+    &       +@;;;$@+                ",
"                     +==%@@%++           ++++++                 ",
"                     +==%@$@%=++                                ",
"                      +==%$$$$$$+++                             ",
"          .            ++=%@$$$$$;;+++    .                     ",
"         . .             +++++==%%@$;'+  . .                    ",
"          .                   +++++%$;+   .                     ",
"                         &         +%$+                  &      ",
"                       & &          +%;+               & &      ",
"                       & &          +%;+               & &      ",
"                       &            +$+                &        ",
"                                   +@$+                         ",
"             &                     +++       &                  ",
"            & &                             & &                 ",
"             &                               &                  "};
