/* XPM */
static char * enemy_patrol2_xpm[] = {
"64 64 54 1",
" 	c None",
".	c #000000",
"+	c #2F373A",
"@	c #343C40",
"#	c #40494E",
"$	c #4A565C",
"%	c #455056",
"&	c #3B4348",
"*	c #2A3033",
"=	c #1E2325",
"-	c #606F76",
";	c #556269",
">	c #1B0000",
",	c #5E2828",
"'	c #F2F2F2",
")	c #160000",
"!	c #D7AEAE",
"~	c #D7D7D7",
"{	c #8B7E71",
"]	c #5E3636",
"^	c #C9A1A1",
"/	c #C99494",
"(	c #AEAEAE",
"_	c #6B3636",
":	c #9F9388",
"<	c #A4A4A4",
"[	c #A1A1A1",
"}	c #BCBCBC",
"|	c #6E6E6E",
"1	c #515151",
"2	c #51000D",
"3	c #43000D",
"4	c #7C7C7C",
"5	c #949494",
"6	c #797979",
"7	c #510D0D",
"8	c #430000",
"9	c #290000",
"0	c #868686",
"a	c #510D1B",
"b	c #360000",
"c	c #898989",
"d	c #5E5E5E",
"e	c #979797",
"f	c #B1B1B1",
"g	c #B4AAA0",
"h	c #EAE7E7",
"i	c #926E6E",
"j	c #847874",
"k	c #C9C9C9",
"l	c #916666",
"m	c #976E6E",
"n	c #916161",
"o	c #242A2C",
"                                                                ",
"                                                                ",
"                    .....                                       ",
"                  ..++@@@.                                      ",
"                 .++@@###@.                                     ",
"                 .@@##@..#@.                     ......         ",
"                .+##@..  ..                    ..$$$%%#..       ",
"               .+@#@.                         .%$$%%##&&&.      ",
"               .+@@*.                        .%$$%##&&@@@@.     ",
"              .*+@*.                       ..&$$%#&&@@@@@@..    ",
"              .*+@*.                      .&#%%#&@**....*@@@.   ",
"              .=*+@*.                    .&#%$#&@@..    .*@@.   ",
"              .=*+@*.                    .#%$%&@@*.      .@@@.  ",
"              .==*@@*.                 ..@%-%#@@*.       .*@@.  ",
"               .==+$#@.               .@&#-%#&*..         .*@.  ",
"               .==+@;#*..     ..     .*@&%%#&@.           .*@.  ",
"                .=*+@;@**.  ..==..  ..@#$-#&@@.           .*@.  ",
"                .==*+@#@**..==****..**&#-%&&@*.            .*.  ",
"                 .===*@#=.****@@@@&&&&#$%#&@*.              .   ",
"                  .===+..=***@@@&&######&@@@*.                  ",
"                   .==.==**@@@@&##$$$$##&@@@*.                  ",
"                    ..==**@@@@&##$######&@**.                   ",
"                     .***@@@@@#$@*;;;$#$#&*..                   ",
"                    .=**@@@@@@&@*$---;*##&@*.                   ",
"                    .=*@@&@@@@@*#=====@*@#@**.                  ",
"                   .==@>&#&@@@*#=,')!,=**@@@*.                  ",
"          ....     .=*>~>@&@&@=*{]^!/,{*=@@@**.                 ",
"         .====...  .=>~(>@@>@&*=*{]_]:*=*@@@**.                 ",
"       ..=****===...=>(><>>[>@@*=*{{{{=*@@@@@*.                 ",
"      .==*@@@@**===.><>><~}(>>&@*=====*@@@@@@*.                 ",
"     .*@@@@@@@@@@@=>|123>45>16>&&@@@@@@&##&@@*.                 ",
"    .*@@######@@@@*>|1728>>9>5>&#&&&&&&####&@@.                 ",
"   .*@##......#@@@@*>0a238bb9c>@&&@@@@@&&##&@@.                 ",
"   .@#..      .##@@@>d>723bb95>@@@====*@@&#&@*.                 ",
"   ...         ...#@>0>2>2>>01>*@*@#;;*@=*@@**.                 ",
"                  .#@>6>0>}1ec>*@*=====@#@@@**.                 ",
"                   .#>0010~1f(>**=gh)ij=*@@**.                  ",
"                    .=>(>}~>k>***=glmnj=*@@*..                  ",
"                     .=>=>>=>****@=====*@@*.@#.                 ",
"                      .=====***********@@*.@$$@.                ",
"                       .===***@*******@@*.@#;;#@.               ",
"                        ..=**@@@**o******.@##-#@.               ",
"                        .=*@##@*=.****... .*@#;$#.              ",
"                        .=@###@=......     .*@-$#@.             ",
"                       .=*####=.            .*-$#@.             ",
"                       .=*###@.             .*-$#@.             ",
"                      .=*@$#@*.              .;$#@.             ",
"                      .=*@$#@*.         ..  .#$#@.              ",
"                      .=*@$#@*.        .@#..##$#@.              ",
"                       .=*#$#@.         .@#$$$#@.               ",
"                        .=*@##@.         ..@@@..                ",
"                         .=*@##@..         ...                  ",
"                         .==*@##$;.                             ",
"                          .==*###$.                             ",
"                           ...**@#$.                            ",
"                              ..*@#$.                           ",
"                                .@#$.                           ",
"                                 .#$.                           ",
"                                 .@.                            ",
"                                 .@.                            ",
"                                  .                             ",
"                                                                ",
"                                                                ",
"                                                                "};
