/* XPM */
static char * enemy_patrol1_xpm[] = {
"64 64 54 1",
" 	c None",
".	c #000000",
"+	c #2A3033",
"@	c #2F373A",
"#	c #343C40",
"$	c #40494E",
"%	c #455056",
"&	c #3B4348",
"*	c #1E2325",
"=	c #606F76",
"-	c #4A565C",
";	c #556269",
">	c #1B0000",
",	c #D7D7D7",
"'	c #5E2828",
")	c #F2F2F2",
"!	c #A19494",
"~	c #D7AEAE",
"{	c #AEAEAE",
"]	c #8B7E71",
"^	c #5E3636",
"/	c #BCAEAE",
"(	c #C9AEAE",
"_	c #743E3E",
":	c #A4A4A4",
"<	c #BCBCBC",
"[	c #6B3636",
"}	c #9F9388",
"|	c #6E6E6E",
"1	c #43000D",
"2	c #515151",
"3	c #7C7C7C",
"4	c #949494",
"5	c #797979",
"6	c #51000D",
"7	c #430000",
"8	c #290000",
"9	c #868686",
"0	c #510D0D",
"a	c #360000",
"b	c #5E5E5E",
"c	c #979797",
"d	c #898989",
"e	c #B4AAA0",
"f	c #EAE7E7",
"g	c #160000",
"h	c #926E6E",
"i	c #847874",
"j	c #B1B1B1",
"k	c #916666",
"l	c #976E6E",
"m	c #916161",
"n	c #C9C9C9",
"o	c #242A2C",
"                                                                ",
"                                                                ",
"                   .....                                        ",
"                  .+++++.                                       ",
"                 .+@@@@@+.                        ....          ",
"                .+@#$$$$@+.                    ...$$$$....      ",
"               .@#$$#+.+#$.                   .$$%$&&&&&$$.     ",
"               .@#$#+. .+#.                  .$%%$&&&##&&&$.    ",
"              .+@##+.   .+.                 .$%%$&&##++###&$.   ",
"              .+@##+.    ..               ..$%%$&&#++..+++#&$.  ",
"              .*+@$#+.                   .$%%%&&#+...  ....+#&. ",
"              .*+@$#+.                   .$%%$&#+.         .+#. ",
"              .**+$$#+.                 .#%=$&#+.           .+. ",
"               .*+#$$#...             ..#&=-$&#+.            .  ",
"                .*@##$#++.    ..     .##&%%$&#..                ",
"                .*+@##$##+. ..**..   .$$-=$&&#.                 ",
"                 .*+@#$$$#..**++++...+%$=%&&#+.                 ",
"                 .**+@####**+++++++++#%-%$&##+.                 ",
"                  .***@..*+++###&&$$$$$$&###+.                  ",
"                   .**.**++####&$$----$$&##+.                   ",
"                    .***++####&$$-$$$$$$&#++.                   ",
"                     .*+++####$$-+++++-$$&+.                    ",
"                    .*+#######&#+-===;+$$&#+.                   ",
"                    .*#>#&#####+$*****#+#$#++.                  ",
"                   .*+>,>#&###+$*')!~'*++###+.                  ",
"                   .*>,{>>>>##+*]^/>(_]*+###++.                 ",
"        .......    .>:>>:,<{>#+*+]^[^}+*+###++.                 ",
"      ..+++****... .>|>1>:<2{>#+*+]]]]*+#####+.                 ",
"     .++###+++****.>|211>34>25>#+*****+######+.                 ",
"  ...+########+****>|2167>>8>4>&#+++++##&&###+.                 ",
" .+$$$.....$$$####+>|91061aa83>&$&&&&&&$$$$&##.                 ",
"  ....     ...$####+>b1666a884>#&&#####&&$$&##.                 ",
"              .$$###>91061aa85>###****+##&$&#+.                 ",
"               ..$##>b1061aa83>#**++++**+#&##+.                 ",
"                 ..$>5>6>6>>9:>+#+*****#$###++.                 ",
"                   .*>5>9><2cd>++*efghi*+##++.                  ",
"                    .>>929,2j{>#+*eklmi*+##+..                  ",
"                     .9{2<,>n>###+*****+##+.+#.                 ",
"                      .>>>.*>++###+++++##++$;-#.                ",
"                       .*.*++++++#o+++##+.$$-;$#.               ",
"                        .*+++#++++o++++++.#$$-$#.               ",
"                        .*+###+++*+++++...+#$$=$#.              ",
"                        .+#$-$+*.......   ..+#-;$#.             ",
"                       .*+$-$#*.            .#$=$#.             ",
"                       .+#-$#+.             .#$=$#.             ",
"                       .+#-#+*.              .$=$#.             ",
"                       .*+$#+.               .$-$#.             ",
"                        .+$#+.               .-$#.              ",
"                        .+$#+.              .#$$#.              ",
"                         .#$#+.           ..#-$#.               ",
"                         .##$-.          .####..                ",
"                         .+##$#.          ....                  ",
"                          .+#$#.                                ",
"                           .+#-#.                               ",
"                            .#-#.                               ",
"                            .#-#.                               ",
"                             .$#.                               ",
"                             .$.                                ",
"                             .$.                                ",
"                             ..                                 ",
"                                                                ",
"                                                                ",
"                                                                ",
"                                                                "};
