/* XPM */
static char * enemy_patrol_dead_xpm[] = {
"64 64 41 1",
" 	c #4D9262",
".	c #3E734E",
"+	c #7AB055",
"@	c #000000",
"#	c #1E2325",
"$	c #2A3033",
"%	c #3B4348",
"&	c #2F373A",
"*	c #455056",
"=	c #343C40",
"-	c #40494E",
";	c #606F76",
">	c #4A565C",
",	c #556269",
"'	c #24292C",
")	c #8D7878",
"!	c #B2A2A2",
"~	c #B8A7A7",
"{	c #B29D9D",
"]	c #1B0000",
"^	c #887878",
"/	c #D7D7D7",
"(	c #AEAEAE",
"_	c #7C7C7C",
":	c #A4A4A4",
"<	c #515151",
"[	c #6E6E6E",
"}	c #43000D",
"|	c #51000D",
"1	c #290000",
"2	c #868686",
"3	c #430000",
"4	c #360000",
"5	c #797979",
"6	c #510D0D",
"7	c #A1A1A1",
"8	c #898989",
"9	c #979797",
"0	c #BCBCBC",
"a	c #949494",
"b	c #242A2C",
"                                                                ",
"                      .                               .         ",
"                     . .                             . .        ",
"                      .                               .         ",
"                                                                ",
"                                                                ",
"                 +                               +              ",
"                 ++                              ++             ",
"      +          ++  +                +          ++  +          ",
"      +           +.++                +           +.++          ",
"      + +         .++.                + +         .++.          ",
"      + +          ..                 + +          ..           ",
"        +                               +                       ",
"                                                                ",
"                                                                ",
"+                               +                               ",
" +                             + +                             +",
"+                               +                               ",
"                                                                ",
"                          @@                                    ",
"                      @@@@##@@@@  @@@@     @@@@@@@              ",
"          .          @##$$$$####@@####@@ @@#$%%%$$@@            ",
"         . .        @##$&&&&$##@@#$$$$##@##$%%***%$$@           ",
"          .        @#$$&====&&@#$$$$$$$$$$$%%-;;;>%%%@          ",
"                  @##$&=====$@#$$$$========%%%>>>;>=%$@  +      ",
"                 @##$&&===-=@#$$$=====%%%%%%%%--->;>==$@ +      ",
"                 @#$&==---$@$$$====%%-->>>>---%%@@->;-%@ +      ",
"                 @$$&=---=@#$====%%%-->---->>-%$$$@->>-=@@      ",
"                @#$&=--=$@$$====%%%%>-=$$$$==---=$@%->;*-%@     ",
"             +  @#&&---$@#$====%%%%%-=$>,,,$$->-=$$@%->>*-@     ",
"            + + @$&=--=@##=====%%==%=$>,;;;>-$>-==$@$--*>*@     ",
"             +  @$&--=$@#$==========$->>,,,>--#=%=$$@%%--**@    ",
"                @$&--$@##$==========----------#$-==$@=%%-**@    ",
"                @&=--$@##$====%====$''#)!~{##'$$===$$@$%%-*-@   ",
"                @&=-=$@##$]]]======$$''#^)^'''$$===$$@$=%%-*@   ",
"                @&=-=$@##]/(]]]]]===$$$'###$$$$====$$@$$=%%-@   ",
"                @$=-=$@]]((_/:<:/]===$$$$$$$$$======$$@$==%-@   ",
"                @@&-=@#][/]]/:<:(]=%==$$$$$$==%%%===$$@$$=%%-@  ",
"                 @&-=@][<]}]_]]]](]%%%========---%==$$@@$$=%-@  ",
"                 @&=$@][<]}|]111]/]%%-%%%%%%%%----%==$@@$$=%-@  ",
"    @@@          @$&$@#]2]}|3341]/(]=%%=======%%--%==$@@$$=%-@  ",
"   @$$-@        @@$&$@$#]5]6|}344](/]=$######$==--%=$$@ @$=%-@  ",
"   @$=@ +    @@@-@$&$@$#]7]6|}]]4]<2]$#$$$$$$#$=%%==$$@ @$=%-@  ",
"  @$-@+ +  @@---==@&@$=#](5]]]<<]82]$$===-,---$$===$$@  @$=%-@  ",
"  @$=-@@@@@---====@@#$$#]((22]<<99]#$=$$$$$$$$-====$$@  @$%%-@  ",
"  @$==-----=====$$$$$$$##]2(02<]]]##$$########$===$@@   @$%-@   ",
"  @$$========$$$#####@@@@#]7a<]]###$==$$b##b$$===$@$$@   @=%@   ",
"+  @$$$$$==$$$#####@@@   @#]]]####$$==$$$bb$$$===@$==@@  @=%@   ",
" +  @@@@@$$@@@@@@@@       @######$$$====$$$$$$==@$,,>==@ @%-@  +",
"+        @@                @###$$$$$$$==b$$$$=$@$=>;,-=@@%-@    ",
"                           @###$$===$$$bb$$$$$$@$=-->,>=@@@     ",
"                           @##$=====$@#@$$$$$$$@$$=--;,=@       ",
"                           @##$==---$#@$$$$$$$@@@@@@->;==@      ",
"          .                @#$==---=##@##@@@@@==->>-@---==@     ",
"         . .               @#$==->-=$#@@@##$$=-->--==@--==@     ",
"          .                 @#$=->>-==###$$==>--===@@=--==@     ",
"                         +   @#==->>==$$$==->-==$@@ @=--==@     ",
"                       + +   @#$=-->------->-=$$@   @==,-=@     ",
"                       + +    @#$==--------=$$@@     @=->-@     ",
"                       +       @@$=========$$@       @==->@@    ",
"                                 @@@@@@@@@@@@         @===->@   ",
"             +                               +         @@==->@  ",
"            + +                             + +          @@@@   ",
"             +                               +                  "};
